<?xml version="1.0" encoding="iso-8859-1"?>
<!-- Generator: Adobe Illustrator 16.0.0, SVG Export Plug-In . SVG Version: 6.00 Build 0)  -->
<!DOCTYPE svg PUBLIC "-//W3C//DTD SVG 1.1//EN" "http://www.w3.org/Graphics/SVG/1.1/DTD/svg11.dtd">
<svg version="1.1" id="Capa_1" xmlns="http://www.w3.org/2000/svg" xmlns:xlink="http://www.w3.org/1999/xlink" x="0px" y="0px"
	 width="612.002px" height="612.002px" viewBox="0 0 612.002 612.002" style="enable-background:new 0 0 612.002 612.002;"
	 xml:space="preserve">
<g>
	<g>
		<g>
			<path d="M150.126,421.825c-21.149,0-43.586,12.024-60.027,32.179c-12.036,14.73-19.32,32.026-20.51,48.728
				c-1.277,17.967,4.535,33.162,16.354,42.827c7.858,6.431,17.837,9.808,28.866,9.808c21.138,0,43.586-12.025,60.038-32.156
				c25.651-31.41,27.513-72.485,4.156-91.577C171.134,425.212,161.155,421.825,150.126,421.825z M159.748,510.891
				c-12.599,15.412-29.819,24.991-44.939,24.991c-6.57,0-12.144-1.817-16.538-5.412c-6.776-5.52-10.055-14.882-9.243-26.344
				c0.898-12.729,6.646-26.149,16.17-37.796c12.588-15.434,29.808-25.013,44.928-25.013c6.57,0,12.144,1.817,16.538,5.411
				C181.459,458.797,178.289,488.183,159.748,510.891z"/>
			<path d="M521.899,454.003c-16.431-20.143-38.877-32.179-60.026-32.179c-11.019,0-21.008,3.377-28.866,9.807
				c-23.355,19.092-21.495,60.167,4.156,91.577c16.441,20.12,38.899,32.156,60.038,32.156c11.018,0,21.008-3.377,28.866-9.808
				c11.817-9.665,17.631-24.86,16.354-42.828C541.22,486.03,533.937,468.734,521.899,454.003z M513.739,530.459
				c-4.396,3.594-9.969,5.412-16.538,5.412c-15.132,0-32.341-9.579-44.939-24.991c-18.54-22.708-21.712-52.083-6.927-64.161
				c4.396-3.594,9.969-5.412,16.538-5.412c15.12,0,32.341,9.579,44.928,25.014c9.525,11.646,15.272,25.066,16.171,37.796
				C523.794,515.578,520.515,524.951,513.739,530.459z"/>
			<path d="M306.546,284.226c-11.906,0-21.593,9.688-21.593,21.604c0,11.906,9.698,21.583,21.593,21.583
				c11.917,0,21.604-9.688,21.604-21.583C328.149,293.914,318.463,284.226,306.546,284.226z M304.446,305.831
				c0-1.181,0.942-2.11,2.1-2.11c1.158,0,2.11,0.931,2.11,2.11C308.656,308.158,304.446,308.158,304.446,305.831z"/>
			<path d="M571.212,427.15c-2.295-2.619-56.932-64.248-117.771-64.248c-10.964,0-21.507,2.014-31.452,6.008l-61.445-65.256
				l187.949-203.632c0.249-0.271,0.477-0.552,0.703-0.844c34.051-46.312,4.438-92.465,3.16-94.413
				c-1.525-2.327-3.961-3.864-6.711-4.286l-2.641-0.378c-3.161-0.422-6.343,0.639-8.519,2.955L305.994,245.738L77.522,3.055
				c-2.187-2.305-5.401-3.388-8.518-2.966l-2.641,0.412c-2.749,0.399-5.195,1.97-6.71,4.286
				c-1.288,1.926-30.879,48.065,3.161,94.391c0.216,0.292,0.443,0.563,0.692,0.844l187.938,203.632L190,368.91
				c-9.947-3.994-20.489-6.008-31.453-6.008c-60.828,0-115.475,61.617-118.073,64.627c-25.165,31.756-35.49,63.521-30.717,94.456
				c7.198,46.552,46.151,73.328,48.684,74.984c18.779,9.957,37.915,15.033,56.855,15.033c52.429,0,85.354-38.099,86.317-39.257
				c60.33-62.43,61.077-142.394,60.243-162.156l44.138-47.817l44.138,47.817c-0.833,19.764-0.13,99.673,59.832,161.713
				c1.375,1.603,34.312,39.7,86.729,39.7c18.939,0,38.075-5.076,57.741-15.564c1.646-1.125,40.61-27.901,47.809-74.453
				C607.026,491.063,596.689,459.285,571.212,427.15z M583.021,518.835c-5.759,37.817-38.727,60.925-38.606,60.925c0,0,0,0,0.011,0
				c-15.954,8.453-31.994,12.75-47.721,12.75c-43.196,0-71.608-32.514-72.301-33.293c-61.542-63.694-54.658-150.444-54.583-151.312
				c0.249-2.729-0.683-5.455-2.543-7.457l-54.117-58.643c-1.84-2.013-4.438-3.148-7.154-3.148s-5.314,1.137-7.154,3.148
				l-54.117,58.643c-1.861,2.014-2.792,4.74-2.543,7.457c0.076,0.866,6.949,87.627-55.005,151.776
				c-0.271,0.336-28.368,32.827-71.878,32.827c-15.726,0-31.788-4.286-46.833-12.22c-0.336-0.227-33.542-23.043-39.452-61.282
				c-3.918-25.349,5.076-52.05,26.42-79.021c0.509-0.574,51.033-57.604,103.115-57.604c10.38,0,20.262,2.35,29.386,6.96
				c3.832,1.948,8.518,1.137,11.495-2.014l72.43-76.922c3.507-3.724,3.528-9.515,0.065-13.28L78.204,87.208
				c-17.858-24.667-12.198-49.354-6.938-62.375l227.639,241.795c3.68,3.907,10.509,3.907,14.189,0L540.7,24.865
				c5.206,13.042,10.834,37.839-6.905,62.343L340.077,297.128c-3.464,3.767-3.442,9.557,0.063,13.28l72.432,76.922
				c2.977,3.148,7.674,3.973,11.494,2.014c9.125-4.61,19.007-6.96,29.386-6.96c51.953,0,102.605,57.04,102.812,57.245
				C577.868,466.894,586.873,493.53,583.021,518.835z"/>
		</g>
	</g>
</g>
<g>
</g>
<g>
</g>
<g>
</g>
<g>
</g>
<g>
</g>
<g>
</g>
<g>
</g>
<g>
</g>
<g>
</g>
<g>
</g>
<g>
</g>
<g>
</g>
<g>
</g>
<g>
</g>
<g>
</g>
</svg>
