<?xml version="1.0" ?><svg viewBox="0 0 64 64" xmlns="http://www.w3.org/2000/svg"><g id="outline"><path d="M38.7,21.086a8.077,8.077,0,0,0-6.529,2.334L32,23.586l-.166-.166A8.1,8.1,0,0,0,18,29.151V29.5a8.153,8.153,0,0,0,3.163,6.423L31.39,43.792a1,1,0,0,0,1.22,0l10.227-7.867A8.153,8.153,0,0,0,46,29.5v-.351a8.105,8.105,0,0,0-7.3-8.065ZM44,29.5a6.143,6.143,0,0,1-2.382,4.838L32,41.738l-9.618-7.4A6.143,6.143,0,0,1,20,29.5v-.351a6.1,6.1,0,0,1,5.5-6.074,5.943,5.943,0,0,1,.609-.031,6.079,6.079,0,0,1,4.309,1.788l.873.873a1,1,0,0,0,1.414,0l.873-.873A6.1,6.1,0,0,1,44,29.151Z"/><path d="M32,10A19.986,19.986,0,0,0,21,46.681V52a1,1,0,0,0,1.555.832l5.02-3.347A19.991,19.991,0,1,0,32,10Zm0,38a18.072,18.072,0,0,1-4.375-.559,1.007,1.007,0,0,0-.8.138L23,50.131v-4a1,1,0,0,0-.472-.85A17.972,17.972,0,1,1,32,48Z"/><path d="M40.276,25.559a3.225,3.225,0,0,0-2.643-.127,1,1,0,1,0,.734,1.86,1.219,1.219,0,0,1,1.628.831,1.225,1.225,0,0,1-.321,1.168,1,1,0,1,0,1.41,1.418,3.218,3.218,0,0,0-.808-5.15Z"/></g></svg>