<?xml version="1.0" standalone="no"?>
<!DOCTYPE svg PUBLIC "-//W3C//DTD SVG 20010904//EN"
 "http://www.w3.org/TR/2001/REC-SVG-20010904/DTD/svg10.dtd">
<svg version="1.0" xmlns="http://www.w3.org/2000/svg"
 width="671.000000pt" height="1280.000000pt" viewBox="0 0 671.000000 1280.000000"
 preserveAspectRatio="xMidYMid meet">
<g transform="translate(0.000000,1280.000000) scale(0.100000,-0.100000)"
fill="#000000" stroke="none">
<path d="M2686 12785 c-18 -14 -12 -15 70 -15 64 0 96 -4 110 -15 10 -8 26
-15 34 -15 12 0 12 2 -1 15 -8 8 -41 19 -74 25 -33 5 -73 12 -90 15 -19 3 -37
0 -49 -10z"/>
<path d="M2419 12692 c-24 -16 -51 -37 -59 -48 -12 -14 -8 -13 15 4 17 13 45
32 63 44 28 17 39 28 29 28 -2 0 -23 -13 -48 -28z"/>
<path d="M2860 12705 c0 -2 10 -10 23 -16 20 -11 21 -11 8 4 -13 16 -31 23
-31 12z"/>
<path d="M3026 12695 c4 -8 10 -15 15 -15 12 0 99 -88 99 -100 0 -17 -19 -11
-32 10 -7 11 -23 20 -35 20 -36 0 -53 11 -53 36 0 12 -10 30 -22 38 -32 23
-41 20 -23 -8 21 -31 5 -42 -34 -22 -29 15 -29 15 -18 -8 6 -13 20 -27 31 -32
12 -5 22 -17 24 -26 6 -30 -35 -21 -60 12 -12 17 -26 30 -31 30 -6 0 -25 11
-43 25 -38 29 -57 32 -52 8 2 -10 22 -24 47 -33 41 -14 45 -18 45 -50 0 -35 0
-35 -70 -52 -46 -12 -86 -16 -121 -12 -40 5 -59 2 -78 -10 -46 -30 -30 -38 69
-34 83 3 97 6 120 27 23 21 28 22 55 11 16 -6 37 -20 47 -31 9 -10 25 -19 35
-19 10 0 21 -5 24 -10 10 -17 -24 -24 -49 -10 -27 14 -82 6 -93 -14 -10 -16
-71 -46 -93 -46 -10 0 -31 7 -46 15 -16 8 -38 15 -49 14 -18 0 -18 -1 3 -9 30
-12 28 -28 -5 -42 -16 -6 -59 -26 -98 -43 -38 -18 -87 -38 -108 -44 -20 -7
-35 -17 -31 -22 3 -6 0 -17 -8 -26 -11 -14 -9 -14 20 1 39 20 62 15 62 -13 0
-10 7 -21 15 -25 21 -8 19 -33 -5 -46 -25 -13 -40 -5 -40 21 0 11 -4 17 -10
14 -18 -11 -10 -44 15 -61 30 -20 32 -47 6 -97 -10 -21 -22 -69 -26 -108 -5
-46 -16 -86 -31 -112 -13 -23 -24 -55 -24 -72 l0 -30 15 25 c36 62 67 138 76
187 11 59 100 327 125 375 16 30 66 58 106 58 13 0 48 12 78 26 124 58 155 61
190 20 7 -9 20 -16 28 -16 12 0 13 3 4 12 -17 17 -15 48 4 55 22 8 46 -20 53
-64 6 -34 9 -38 35 -35 24 3 27 0 24 -20 -2 -16 -11 -24 -29 -26 -22 -3 -28
-10 -33 -36 -4 -18 -15 -41 -26 -51 -12 -11 -20 -31 -20 -52 l0 -33 -85 0
c-79 0 -88 -2 -112 -26 -18 -18 -32 -24 -48 -20 -18 5 -30 -2 -50 -26 -33 -39
-19 -48 36 -23 49 23 58 14 34 -30 -10 -20 -16 -38 -12 -41 3 -3 25 6 50 20
24 14 56 26 71 26 24 0 27 -3 24 -27 -2 -23 -8 -29 -35 -31 -18 -2 -33 -8 -33
-14 0 -7 23 -9 70 -5 39 3 70 3 70 -1 0 -4 9 -8 20 -8 16 0 20 7 20 31 0 41
26 77 53 73 18 -2 22 -10 24 -48 1 -25 10 -86 19 -136 10 -50 15 -98 11 -107
-4 -11 -25 -18 -67 -23 -49 -5 -60 -10 -58 -23 2 -9 14 -18 27 -19 13 -2 26
-12 28 -23 4 -14 11 -18 22 -13 36 15 71 16 71 2 0 -21 -21 -38 -46 -38 -13 0
-26 -5 -29 -10 -4 -7 -24 -8 -50 -4 -37 5 -45 3 -54 -14 -20 -37 -13 -42 59
-42 53 0 70 -3 70 -14 0 -21 -26 -37 -70 -43 -30 -4 -40 -10 -38 -22 2 -9 12
-17 23 -19 36 -7 40 -20 17 -52 -12 -16 -22 -38 -22 -50 0 -18 -6 -20 -64 -20
-35 0 -92 8 -127 19 -83 24 -115 25 -123 4 -8 -20 12 -34 39 -27 12 3 51 -9
89 -25 77 -35 91 -37 100 -15 5 14 9 13 36 -2 34 -20 45 -43 30 -58 -15 -15
-12 -26 5 -20 8 4 15 15 15 26 0 12 6 19 18 17 9 -1 26 2 36 6 15 6 25 2 43
-19 26 -30 23 -43 -13 -56 -18 -7 -24 -17 -24 -38 0 -15 -5 -33 -12 -40 -8 -8
-7 -23 7 -58 16 -43 19 -46 26 -26 11 30 34 27 59 -8 11 -16 27 -27 34 -24 8
3 36 -18 66 -49 28 -29 76 -67 105 -82 48 -26 56 -28 79 -16 33 18 117 -2 271
-65 226 -93 333 -177 336 -265 l1 -34 7 29 c3 16 12 31 19 34 16 5 16 -43 0
-120 -12 -56 -7 -81 12 -62 5 5 15 46 23 92 14 83 21 101 34 89 9 -9 -15 -157
-37 -229 l-18 -58 22 0 c20 0 25 8 36 58 15 70 18 76 35 62 10 -8 15 -6 20 9
10 31 25 25 25 -9 0 -22 4 -28 15 -24 12 5 15 -3 15 -35 0 -23 5 -41 10 -41 6
0 10 -11 10 -25 0 -18 4 -23 15 -19 13 6 20 -6 16 -28 0 -4 8 -12 19 -18 11
-6 20 -20 20 -31 0 -24 -29 -37 -41 -18 -6 10 -9 10 -9 2 0 -7 -9 -13 -20 -13
-24 0 -26 -16 -5 -36 21 -21 9 -41 -25 -41 -28 0 -30 3 -30 37 0 28 -4 36 -19
37 -13 1 -20 -6 -24 -23 -3 -16 0 -24 9 -24 29 0 13 -27 -16 -28 -27 -1 -30 3
-30 29 0 34 -29 41 -37 9 -8 -32 -30 -23 -37 14 -7 35 -25 50 -50 40 -7 -3
-16 3 -20 13 -16 43 -32 63 -51 64 -11 1 -25 2 -32 3 -19 2 -53 53 -53 81 0
15 -11 36 -26 50 -24 22 -26 30 -22 80 4 46 2 55 -12 55 -25 0 -40 -21 -40
-57 0 -41 -18 -43 -32 -3 -14 43 -32 32 -36 -21 -2 -25 -10 -49 -19 -56 -18
-14 -21 -109 -4 -141 24 -44 -4 -60 -32 -19 l-16 22 -2 -30 c-1 -16 -1 -42 0
-57 2 -23 -3 -28 -36 -37 -21 -5 -49 -11 -63 -13 -20 -2 -26 -10 -32 -47 -4
-24 -14 -51 -23 -61 -11 -12 -12 -19 -4 -27 13 -13 4 -33 -16 -33 -7 0 -16 -9
-20 -19 -3 -10 -19 -24 -35 -31 -19 -8 -29 -19 -28 -29 2 -11 -6 -17 -29 -19
-21 -2 -34 -10 -38 -22 -3 -11 -19 -30 -35 -44 -36 -30 -27 -40 51 -58 30 -6
62 -20 72 -30 24 -24 71 -23 88 2 20 30 107 39 143 15 21 -14 40 -17 87 -12
51 4 64 2 80 -14 10 -10 26 -19 34 -19 9 0 18 -7 21 -15 4 -9 19 -15 35 -15
16 0 29 -5 29 -11 0 -5 14 -15 31 -21 19 -7 28 -15 25 -24 -4 -10 3 -14 20
-14 21 0 25 -4 22 -22 -2 -19 -16 -27 -78 -45 -46 -14 -89 -21 -112 -18 -39 5
-44 1 -29 -24 8 -12 23 -11 98 12 99 31 128 33 136 13 3 -8 16 -16 29 -18 17
-2 22 -9 21 -26 -2 -14 3 -22 12 -22 24 0 17 -17 -15 -40 -16 -12 -30 -27 -30
-34 0 -23 -27 -39 -46 -28 -22 12 -113 -16 -93 -29 39 -24 -101 -81 -148 -60
-13 6 -47 11 -76 11 -45 -1 -50 -2 -34 -14 31 -24 18 -29 -61 -22 -48 4 -89 3
-106 -4 -21 -8 -32 -7 -49 5 -12 8 -34 15 -49 15 -18 0 -28 5 -28 14 0 22 -15
27 -46 15 l-28 -10 30 -20 c17 -10 80 -31 140 -46 96 -23 113 -31 141 -62 18
-19 35 -49 39 -67 5 -25 10 -31 25 -27 10 3 19 14 19 24 0 20 15 26 24 10 3
-5 14 -7 25 -4 13 3 20 -2 24 -17 6 -24 -1 -50 -13 -50 -5 0 -6 -43 -3 -95 5
-87 4 -95 -12 -95 -16 0 -17 -8 -13 -91 4 -71 3 -92 -8 -96 -8 -3 -14 -19 -14
-38 0 -32 -13 -54 -23 -38 -3 5 -12 85 -21 178 -9 94 -19 185 -22 203 -8 53
-21 28 -16 -34 5 -55 4 -56 -18 -49 -20 6 -22 5 -16 -11 19 -50 38 -156 40
-219 1 -62 -1 -70 -19 -73 -11 -2 -28 -11 -38 -20 -17 -15 -16 -17 20 -27 28
-8 39 -17 41 -33 2 -13 -3 -25 -12 -28 -9 -3 -16 -17 -16 -31 0 -14 4 -21 10
-18 17 11 50 -5 50 -24 0 -13 -10 -20 -30 -24 -24 -5 -30 -12 -30 -32 0 -14
-8 -30 -18 -36 -13 -8 -17 -20 -14 -45 2 -19 8 -34 13 -34 5 0 9 -11 9 -24 0
-13 6 -26 14 -29 14 -6 33 -84 23 -94 -4 -3 -19 -1 -36 5 -29 10 -30 9 -50
-38 -12 -27 -21 -61 -21 -75 0 -15 -11 -45 -24 -68 -13 -23 -27 -62 -31 -87
-3 -25 -8 -57 -11 -72 -5 -23 -2 -28 15 -28 24 0 28 -22 7 -39 -8 -7 -23 -30
-34 -51 l-19 -40 22 6 c34 8 37 -9 10 -46 -14 -19 -25 -44 -25 -57 0 -24 -26
-43 -49 -35 -21 7 -81 -28 -81 -48 0 -17 -85 -70 -113 -70 -8 0 -18 7 -21 16
-3 8 -11 12 -16 9 -8 -5 -7 -11 0 -20 20 -24 3 -34 -40 -23 -44 12 -55 38 -15
38 16 0 25 6 25 15 0 8 -6 15 -14 15 -7 0 -19 -7 -26 -15 -7 -8 -23 -15 -35
-15 -12 0 -29 -10 -38 -22 -12 -19 -18 -21 -28 -10 -18 16 -58 17 -41 0 20
-20 14 -44 -22 -87 -33 -39 -71 -123 -83 -183 -3 -15 -12 -33 -20 -40 -12 -10
-18 -9 -29 7 -14 18 -14 18 -14 -3 0 -27 25 -39 45 -22 7 6 31 52 51 102 29
70 51 104 94 150 54 57 59 59 101 56 42 -3 44 -5 47 -37 2 -19 1 -44 -2 -57
-8 -29 -36 -32 -36 -4 0 30 -16 24 -31 -12 -10 -24 -10 -33 -1 -36 7 -2 12
-15 12 -28 0 -13 5 -33 12 -43 7 -11 8 -26 3 -37 -5 -11 -9 -62 -9 -114 -1
-74 -5 -102 -19 -123 -24 -36 -38 -34 -31 6 4 26 1 22 -15 -17 -26 -63 -36
-73 -56 -56 -21 17 -26 9 -17 -26 5 -16 4 -76 -1 -132 -8 -83 -7 -106 3 -112
10 -6 11 -23 6 -65 -6 -51 -5 -57 10 -51 20 8 34 -9 34 -41 0 -13 5 -23 10
-23 13 0 13 9 -2 218 -9 129 -9 175 -1 183 17 17 18 12 68 -430 25 -217 46
-396 48 -398 3 -2 7 45 11 104 7 106 30 321 42 396 5 29 3 37 -10 37 -9 0 -18
11 -22 25 -6 24 -7 24 -19 8 -22 -30 -26 -10 -15 68 20 135 28 163 75 262 44
94 47 98 100 124 58 29 80 26 50 -7 -16 -18 -16 -20 -2 -20 25 0 20 -21 -13
-60 -36 -42 -37 -50 -6 -50 16 0 32 11 46 30 21 30 58 56 66 47 3 -2 -13 -27
-35 -54 -52 -67 -81 -125 -81 -165 l0 -33 26 45 c14 25 35 55 46 67 16 17 18
26 10 36 -18 22 40 97 75 97 3 0 3 -10 0 -21 -5 -19 -1 -17 28 11 19 19 40 30
48 27 9 -3 27 7 43 25 38 40 83 63 96 50 16 -16 1 -42 -24 -42 -17 0 -19 -3
-10 -12 8 -8 15 -8 24 -1 14 11 98 15 98 4 -1 -16 -20 -33 -32 -29 -8 3 -25 0
-39 -8 l-24 -13 28 -1 c15 0 27 -4 27 -8 0 -5 -16 -28 -37 -51 -40 -47 -34
-65 19 -54 24 5 28 2 28 -16 0 -13 6 -21 16 -21 12 0 15 -6 10 -25 -5 -18 -2
-25 9 -25 8 0 15 -5 15 -11 0 -7 -10 -9 -25 -7 -30 6 -66 -25 -40 -35 8 -4 15
-13 15 -22 0 -8 7 -15 15 -15 30 0 14 -28 -20 -34 -19 -4 -37 -12 -41 -17 -4
-7 1 -9 15 -4 30 9 28 -25 -4 -63 -29 -34 -31 -44 -10 -36 17 7 30 -19 19 -38
-4 -7 -9 -57 -11 -111 -2 -54 -7 -106 -12 -116 -7 -12 -6 -22 1 -29 9 -9 6
-19 -10 -42 -26 -34 -28 -56 -7 -64 17 -6 20 -58 5 -86 -6 -10 -13 -72 -16
-136 -3 -65 -10 -126 -15 -136 -6 -10 -7 -28 -4 -39 4 -11 0 -30 -9 -44 -13
-20 -14 -29 -4 -44 9 -15 8 -24 -5 -44 -19 -29 -12 -63 14 -70 13 -3 17 -11
13 -21 -7 -19 -30 -21 -37 -3 -3 8 -9 6 -20 -8 -13 -16 -13 -21 -2 -27 10 -6
9 -19 -6 -69 -10 -33 -19 -76 -19 -95 0 -19 -7 -45 -15 -58 -21 -31 -10 -60
17 -45 16 9 20 7 25 -11 4 -13 11 -19 20 -16 9 4 17 -1 20 -13 3 -12 11 -17
19 -14 9 3 14 -1 14 -12 0 -10 -7 -15 -17 -14 -10 1 -26 -1 -36 -6 -10 -4 -23
-2 -31 4 -10 8 -16 9 -21 1 -3 -5 -13 -10 -22 -10 -12 0 -14 7 -9 31 l6 32
-21 -28 c-17 -21 -19 -29 -9 -35 7 -5 10 -17 7 -30 -5 -20 -4 -21 12 -6 26 24
55 21 48 -5 -4 -15 -2 -19 9 -15 9 3 14 -1 14 -14 0 -11 -7 -20 -15 -20 -8 0
-15 5 -15 11 0 7 -9 1 -20 -13 -14 -19 -17 -32 -11 -54 5 -18 10 -24 15 -16
11 19 36 14 36 -7 0 -10 -9 -29 -19 -42 -20 -25 -21 -24 -33 20 -3 9 -10 5
-21 -13 -15 -22 -15 -26 -2 -26 35 0 6 -70 -50 -119 -38 -33 -63 -34 -45 0 10
17 7 19 -29 19 -22 0 -43 -4 -46 -10 -3 -5 3 -10 14 -10 26 0 27 -12 1 -35
-27 -24 -25 -35 4 -35 29 0 42 -16 27 -34 -13 -15 4 -36 31 -36 22 0 23 -23 2
-41 -14 -11 -18 -11 -29 4 -7 9 -17 17 -24 17 -6 0 -11 9 -11 20 0 16 -7 20
-35 20 -33 0 -34 -1 -25 -26 13 -32 13 -31 -5 -38 -8 -3 -33 1 -56 9 -49 18
-49 18 -49 5 0 -5 7 -10 16 -10 26 0 10 -24 -24 -35 -45 -15 -46 -19 -28 -71
23 -67 21 -104 -4 -104 -14 0 -20 7 -20 21 0 18 -2 19 -15 5 -21 -20 -19 -33
6 -39 16 -4 19 -11 14 -26 -4 -12 -2 -21 4 -21 6 0 11 -9 11 -20 0 -11 5 -20
11 -20 7 0 9 10 4 27 -3 15 -7 30 -7 33 -3 44 28 39 47 -7 15 -36 15 -39 -4
-55 -26 -21 -27 -32 -2 -18 11 5 23 19 26 30 3 11 15 20 26 20 26 0 26 -45 -1
-67 -39 -33 -17 -96 32 -91 18 2 24 -2 26 -23 2 -20 8 -26 21 -22 10 3 21 -2
24 -10 8 -21 -34 -97 -54 -97 -10 0 -19 -10 -21 -25 l-5 -24 29 24 c16 14 35
25 43 25 7 0 15 9 18 20 5 20 37 29 37 10 0 -5 7 -10 15 -10 8 0 15 -7 15 -15
0 -10 -11 -15 -35 -15 -24 0 -35 -5 -35 -15 0 -9 6 -12 15 -9 10 4 15 0 15
-11 0 -12 -5 -15 -16 -11 -11 4 -29 -7 -55 -34 -45 -46 -50 -65 -14 -48 31 14
35 10 42 -42 5 -32 8 -38 15 -26 5 9 13 16 18 16 12 0 13 -110 1 -129 -13 -21
-31 -4 -32 32 -1 20 -5 8 -11 -30 -6 -39 -15 -63 -22 -63 -7 0 -18 -11 -24
-25 -6 -14 -16 -25 -21 -25 -5 0 -12 -7 -15 -16 -5 -12 -2 -15 9 -10 22 8 31
-22 12 -42 -15 -14 -17 -14 -25 7 -7 20 -9 21 -21 7 -11 -14 -11 -16 3 -16 9
0 16 -8 16 -19 0 -11 9 -21 21 -24 19 -5 21 -11 15 -38 -3 -18 -14 -41 -23
-51 -15 -17 -15 -18 1 -18 14 0 17 -8 14 -42 -2 -36 -7 -44 -25 -46 -17 -3
-23 -10 -23 -28 0 -14 5 -23 12 -22 25 6 20 -40 -6 -57 -14 -9 -26 -26 -28
-38 -4 -30 -31 -28 -38 3 -4 17 -8 21 -14 12 -4 -6 -16 -12 -27 -12 -13 0 -19
-7 -19 -21 0 -19 1 -19 16 -5 8 9 19 16 24 16 16 0 31 -39 24 -65 -4 -15 -2
-25 5 -25 6 0 11 -11 11 -24 0 -19 4 -23 20 -19 16 4 20 0 20 -20 0 -24 -22
-52 -32 -41 -3 3 -10 -9 -16 -25 -13 -36 -29 -40 -41 -9 -6 18 -9 19 -14 5 -3
-9 -2 -19 3 -22 6 -4 10 -15 10 -26 0 -10 6 -19 14 -19 8 0 17 -11 20 -25 4
-14 10 -23 15 -21 5 3 14 0 20 -8 8 -10 6 -20 -10 -40 -11 -14 -27 -26 -35
-26 -8 0 -14 -7 -14 -16 0 -10 6 -13 19 -9 24 7 37 -10 46 -63 5 -32 3 -49 -9
-67 -9 -14 -12 -25 -7 -25 5 0 13 5 16 10 3 6 14 10 24 10 20 0 26 31 36 200
5 81 4 83 -9 50 l-14 -35 -1 30 c0 17 6 66 13 110 8 47 10 84 5 89 -17 18 -10
65 11 76 24 13 26 30 5 30 -22 0 -18 30 6 57 19 19 20 25 8 39 -12 14 -10 19
10 35 31 25 46 24 58 -4 l10 -22 7 23 c4 12 13 22 19 22 7 0 18 14 25 32 16
44 35 24 26 -29 -4 -30 -13 -44 -35 -57 -16 -9 -33 -15 -38 -12 -5 3 -14 -8
-20 -24 -9 -26 -8 -30 8 -30 11 0 22 7 25 16 4 9 13 14 21 10 10 -3 18 1 22
12 14 41 59 101 76 102 9 0 17 6 17 14 0 8 3 21 6 29 4 12 0 14 -15 10 -23 -6
-26 8 -15 66 9 45 34 40 34 -6 1 -35 2 -37 15 -19 13 18 27 70 40 159 4 23 11
37 18 34 14 -4 14 -25 3 -114 -7 -56 -6 -63 9 -63 15 0 16 -7 10 -46 -5 -37
-3 -48 11 -58 15 -12 16 -20 7 -67 -8 -39 -8 -56 0 -61 11 -7 0 -84 -18 -131
-6 -13 -3 -16 9 -11 25 9 21 -15 -30 -190 -58 -203 -57 -280 1 -94 29 92 45
128 58 132 14 3 16 11 12 43 -5 34 7 75 18 63 2 -3 7 -38 11 -78 6 -67 5 -74
-13 -79 -18 -5 -34 -46 -23 -58 3 -3 15 -5 28 -5 25 0 34 -17 34 -66 0 -37
-13 -44 -29 -16 -9 16 -10 16 -16 0 -7 -17 19 -50 48 -61 11 -4 17 -18 17 -38
0 -24 -4 -30 -15 -25 -18 7 -19 -7 -3 -33 12 -19 13 -19 35 5 l23 25 -19 97
c-11 53 -25 146 -31 206 -6 60 -15 118 -21 127 -5 10 -9 42 -9 71 -1 41 -3 49
-11 36 -22 -38 -32 -19 -25 45 16 144 23 312 13 318 -12 8 -26 87 -26 155 -1
35 -6 54 -15 57 -20 8 -30 84 -21 163 5 53 10 64 22 60 13 -5 14 4 8 66 -3 40
-9 82 -12 93 -6 19 -7 18 -13 -4 -3 -14 -11 -26 -18 -29 -9 -3 -12 14 -12 60
0 84 8 110 30 103 14 -5 18 3 24 47 7 63 17 389 10 338 -7 -47 -21 -59 -30
-25 -13 51 19 385 37 385 4 0 10 19 13 43 8 75 28 291 30 335 2 25 9 48 17 52
8 5 19 35 24 67 9 53 12 58 35 58 l25 0 -2 -130 c-4 -191 -33 -915 -39 -953
-3 -17 -9 -32 -14 -32 -6 0 -10 -22 -10 -50 0 -37 -4 -50 -14 -50 -24 0 -27
-16 -6 -40 17 -20 20 -38 20 -132 0 -67 4 -107 10 -103 9 6 26 -45 32 -100 2
-16 2 51 0 150 -4 184 20 922 38 1152 6 70 14 234 20 363 8 194 14 262 40 390
16 85 37 193 45 240 17 101 59 514 80 798 16 211 28 282 72 417 21 64 26 100
26 178 1 101 -9 131 -33 102 -11 -13 -11 -21 -2 -36 21 -33 12 -89 -14 -89 -7
0 -18 -9 -25 -21 -17 -33 -36 -8 -20 27 10 22 9 28 -5 38 -14 11 -13 15 11 44
l26 31 -21 21 c-11 11 -20 30 -20 43 0 36 -15 53 -34 38 -8 -7 -20 -10 -25 -6
-12 7 10 69 35 96 12 13 12 22 3 45 l-12 29 -7 -30 c-14 -64 -43 -94 -57 -59
-5 13 -13 9 -39 -22 -42 -49 -43 -31 -3 44 16 31 22 46 12 32 -10 -14 -39 -53
-65 -88 -49 -64 -55 -78 -39 -84 5 -1 6 -18 4 -36 -4 -26 -13 -36 -41 -47 -19
-9 -32 -18 -29 -22 4 -3 30 4 57 17 53 25 74 22 47 -8 -9 -10 -14 -27 -11 -39
4 -16 0 -23 -16 -28 -12 -4 -27 -2 -33 4 -7 7 -16 7 -29 0 -20 -11 -22 -18 -9
-38 7 -11 15 -10 44 8 67 41 92 17 27 -26 -36 -25 -76 -30 -82 -11 -4 10 -10
10 -29 1 -13 -6 -18 -12 -11 -12 6 -1 12 -9 12 -18 0 -10 4 -24 9 -32 7 -11
13 -11 32 3 13 9 33 16 44 16 17 -1 15 -5 -15 -32 l-35 -30 50 28 c28 15 59
34 70 41 29 19 55 16 55 -7 0 -24 -63 -68 -145 -102 -120 -49 -214 -92 -211
-96 2 -2 35 10 73 26 38 16 84 33 101 37 52 11 40 -21 -20 -51 -35 -18 -47
-28 -38 -34 18 -11 -25 -33 -55 -28 -12 3 -55 0 -96 -7 -53 -7 -74 -15 -74
-25 0 -8 -8 -16 -17 -18 -11 -2 -18 3 -18 12 0 11 -9 16 -31 16 -27 0 -31 3
-26 21 4 15 2 19 -8 15 -8 -3 -17 -1 -20 4 -4 6 -31 10 -61 10 -57 0 -66 10
-44 50 7 14 5 19 -10 23 -23 6 -26 25 -5 33 11 5 12 10 2 25 -9 15 -8 21 8 33
18 14 18 15 3 16 -26 0 -22 35 6 57 13 11 78 34 145 53 95 26 121 37 121 50 0
10 13 23 29 29 22 10 27 17 24 36 -4 19 5 30 49 63 59 43 100 88 124 133 10
20 22 29 39 29 34 0 34 -37 0 -50 -13 -5 -36 -27 -51 -49 -14 -22 -37 -47 -50
-56 -29 -19 -31 -31 -4 -38 27 -7 131 105 193 206 l46 76 -9 103 c-22 244 -33
326 -57 402 -36 118 -40 232 -14 389 12 70 21 140 21 155 0 15 6 39 14 54 10
18 13 45 9 86 -7 77 11 111 85 158 94 61 130 77 157 70 14 -3 60 -37 102 -74
128 -112 270 -192 388 -221 59 -15 210 -16 245 -3 55 22 114 114 145 228 25
94 31 266 11 343 -24 94 -90 226 -196 391 -107 169 -158 266 -230 445 -71 175
-150 329 -211 410 -76 100 -171 192 -220 215 -59 27 -71 26 -63 -5 5 -19 2
-25 -10 -25 -12 0 -16 -10 -16 -45 0 -30 -5 -47 -14 -51 -16 -6 -66 17 -85 40
-7 8 -36 22 -64 30 -29 8 -61 22 -72 30 -17 14 -18 17 -5 26 8 5 20 8 27 5 6
-2 13 1 16 8 2 7 22 12 45 13 32 0 42 -4 42 -15 0 -9 9 -22 20 -29 12 -7 18
-16 16 -21 -3 -5 3 -16 13 -25 21 -19 42 -3 22 17 -16 16 -14 47 3 47 7 0 19
7 26 15 7 8 11 15 8 15 -32 0 -306 56 -364 75 -44 13 -96 25 -117 25 -22 0
-51 8 -65 19 -15 10 -52 26 -82 36 -33 11 -67 31 -86 50 -33 36 -104 204 -104
248 0 37 64 164 105 207 l33 35 11 152 c12 166 22 206 68 273 47 69 56 112 57
255 l1 130 -48 104 c-26 58 -57 116 -69 129 -25 26 -247 162 -266 162 -6 0 -9
-7 -6 -15z m204 -270 c0 -8 -7 -15 -15 -15 -16 0 -20 12 -8 23 11 12 23 8 23
-8z m80 -36 c7 -11 9 -27 6 -36 -9 -22 -36 3 -36 33 0 30 16 31 30 3z m-90
-86 c0 -33 -42 -89 -58 -79 -8 5 -4 22 14 56 29 56 44 63 44 23z m-84 -136
c-7 -36 -23 -57 -42 -57 -16 0 -19 26 -3 35 6 4 8 14 5 22 -8 21 12 43 31 36
11 -4 13 -14 9 -36z m-76 -75 c0 -36 -38 -72 -76 -72 -28 0 -34 4 -34 20 0 30
40 65 78 68 25 2 32 -1 32 -16z m-162 -39 c-4 -23 -68 -32 -68 -9 0 16 15 24
48 25 17 1 23 -4 20 -16z m302 -1 c0 -8 -43 -32 -55 -32 -11 0 -4 29 8 33 20
9 47 8 47 -1z m-20 -501 c0 -11 -5 -23 -11 -27 -16 -9 -30 18 -17 33 15 19 28
16 28 -6z m168 -651 c57 -35 34 -54 -33 -26 -36 16 -48 46 -17 46 9 0 32 -9
50 -20z m222 -71 c0 -13 -14 -11 -60 7 -22 9 -38 20 -35 24 7 11 95 -19 95
-31z m434 -130 c-3 -5 -10 -7 -15 -3 -5 3 -7 10 -3 15 3 5 10 7 15 3 5 -3 7
-10 3 -15z m130 -45 c15 -14 23 -84 11 -84 -22 0 -55 36 -55 59 0 43 17 53 44
25z m66 -194 c0 -5 -4 -10 -10 -10 -5 0 -10 5 -10 10 0 6 5 10 10 10 6 0 10
-4 10 -10z m30 -40 c0 -5 -4 -10 -10 -10 -5 0 -10 5 -10 10 0 6 5 10 10 10 6
0 10 -4 10 -10z m-184 -371 c8 -14 -11 -33 -25 -25 -11 7 -4 36 9 36 5 0 12
-5 16 -11z m258 -58 c8 -12 -3 -41 -15 -41 -5 0 -9 11 -9 25 0 25 14 34 24 16z
m-234 -27 c0 -8 -4 -12 -10 -9 -5 3 -10 10 -10 16 0 5 5 9 10 9 6 0 10 -7 10
-16z m125 -14 c14 -5 23 -15 20 -20 -5 -8 -11 -8 -20 0 -10 8 -14 7 -18 -2 -3
-10 -7 -10 -17 -1 -7 6 -9 16 -6 22 9 13 8 13 41 1z m65 -5 c0 -8 -4 -15 -10
-15 -5 0 -10 7 -10 15 0 8 5 15 10 15 6 0 10 -7 10 -15z m75 -35 c0 -7 -6 -15
-12 -17 -8 -3 -13 4 -13 17 0 13 5 20 13 18 6 -3 12 -11 12 -18z m-49 -47
c-11 -11 -19 6 -11 24 8 17 8 17 12 0 3 -10 2 -21 -1 -24z m-121 -3 c0 -13 -5
-25 -12 -27 -13 -5 -27 32 -18 47 11 18 30 5 30 -20z m45 4 c0 -9 -5 -14 -12
-12 -18 6 -21 28 -4 28 9 0 16 -7 16 -16z m45 6 c11 -17 -5 -32 -21 -19 -7 6
-11 15 -8 20 7 12 21 11 29 -1z m-55 -86 c0 -8 -7 -14 -15 -14 -15 0 -21 21
-9 33 10 9 24 -2 24 -19z m46 15 c10 -17 -13 -36 -27 -22 -12 12 -4 33 11 33
5 0 12 -5 16 -11z m324 -8 c0 -6 -4 -13 -10 -16 -5 -3 -10 1 -10 9 0 9 5 16
10 16 6 0 10 -4 10 -9z m-168 -33 c-15 -15 -26 -4 -18 18 5 13 9 15 18 6 9 -9
9 -15 0 -24z m41 -19 c7 -27 -1 -49 -19 -49 -9 0 -14 11 -14 28 0 44 23 59 33
21z m-973 1 c0 -5 -4 -10 -10 -10 -5 0 -10 5 -10 10 0 6 5 10 10 10 6 0 10 -4
10 -10z m760 -10 c0 -5 -4 -10 -10 -10 -5 0 -10 5 -10 10 0 6 5 10 10 10 6 0
10 -4 10 -10z m338 -18 c2 -11 -2 -31 -9 -44 -8 -13 -12 -27 -11 -32 4 -14 -9
-46 -19 -46 -8 0 -3 107 7 138 6 20 29 9 32 -16z m-54 1 c9 -22 -10 -41 -25
-26 -13 13 -5 43 10 43 5 0 12 -8 15 -17z m-1143 -4 c24 -13 16 -29 -16 -29
-34 0 -55 10 -55 26 0 17 43 19 71 3z m1094 -59 c0 -13 -5 -25 -11 -27 -14 -5
-25 22 -17 42 8 23 28 12 28 -15z m-45 -10 c0 -5 -4 -10 -10 -10 -5 0 -10 5
-10 10 0 6 5 10 10 10 6 0 10 -4 10 -10z m74 -61 c-3 -5 -10 -7 -15 -3 -5 3
-7 10 -3 15 3 5 10 7 15 3 5 -3 7 -10 3 -15z m-94 -34 c0 -8 -4 -15 -10 -15
-5 0 -10 7 -10 15 0 8 5 15 10 15 6 0 10 -7 10 -15z m-296 -154 c3 -4 17 -6
31 -3 18 3 25 0 25 -11 0 -32 -75 -51 -86 -22 -12 29 15 61 30 36z m156 -21
c0 -18 -48 -60 -68 -60 -29 0 -48 26 -32 45 15 18 40 20 40 3 0 -8 6 -6 17 5
19 19 43 23 43 7z m53 -7 c4 -3 1 -16 -7 -28 -8 -12 -19 -39 -25 -61 -9 -35
-9 -37 4 -20 8 11 15 27 15 36 0 25 29 60 50 60 14 0 18 -5 13 -17 -6 -16 -5
-17 11 -3 16 13 20 12 30 -2 8 -11 17 -13 28 -7 13 7 14 3 8 -32 -4 -22 -9
-41 -11 -43 -72 -68 -129 -94 -129 -61 0 12 -10 10 -50 -10 -27 -14 -52 -25
-55 -25 -15 0 -2 27 23 47 25 20 25 21 5 16 -17 -4 -23 -1 -23 10 0 9 4 18 9
22 5 3 15 22 22 43 18 58 61 97 82 75z m-198 -44 c10 -15 -1 -23 -20 -15 -9 3
-13 10 -10 16 8 13 22 13 30 -1z m95 -48 c0 -4 -3 -11 -7 -14 -8 -9 -34 13
-28 24 6 9 35 1 35 -10z m586 -44 c-6 -35 -41 -76 -53 -64 -7 7 9 47 34 85 19
31 27 22 19 -21z m-636 13 c0 -5 -2 -10 -4 -10 -3 0 -8 5 -11 10 -3 6 -1 10 4
10 6 0 11 -4 11 -10z m290 -14 c0 -3 -4 -8 -10 -11 -5 -3 -10 -1 -10 4 0 6 5
11 10 11 6 0 10 -2 10 -4z m50 -17 c0 -5 -7 -9 -15 -9 -15 0 -20 12 -9 23 8 8
24 -1 24 -14z m-342 -17 c3 -9 -2 -13 -14 -10 -9 1 -19 9 -22 16 -3 9 2 13 14
10 9 -1 19 -9 22 -16z m387 9 c7 -12 -12 -24 -25 -16 -11 7 -4 25 10 25 5 0
11 -4 15 -9z m63 -28 c5 -17 -26 -29 -40 -15 -6 6 -7 15 -3 22 9 14 37 9 43
-7z m-160 -5 c-3 -7 -13 -15 -24 -17 -10 -2 -23 -9 -27 -17 -10 -18 -37 -18
-37 -1 0 14 54 45 78 46 8 1 12 -5 10 -11z m252 -33 c-7 -8 -19 -15 -26 -15
-20 0 -17 27 4 39 23 13 39 -3 22 -24z m-550 9 c0 -9 -7 -14 -17 -12 -25 5
-28 28 -4 28 12 0 21 -6 21 -16z m400 -9 c0 -8 -7 -15 -15 -15 -8 0 -15 7 -15
15 0 8 7 15 15 15 8 0 15 -7 15 -15z m222 -25 c-1 -13 3 -27 9 -31 15 -9 -46
-89 -67 -89 -18 0 -17 10 1 34 10 13 11 23 3 36 -9 13 -6 24 13 49 26 35 45
36 41 1z m-582 10 c0 -5 -4 -10 -10 -10 -5 0 -10 5 -10 10 0 6 5 10 10 10 6 0
10 -4 10 -10z m305 -20 c0 -9 -11 -16 -27 -18 -20 -2 -28 1 -28 12 0 8 6 17
13 19 21 9 42 2 42 -13z m105 4 c0 -9 -5 -14 -12 -12 -18 6 -21 28 -4 28 9 0
16 -7 16 -16z m-50 -29 c0 -10 -10 -15 -26 -15 -22 0 -25 2 -14 15 7 8 19 15
26 15 8 0 14 -7 14 -15z m30 -25 c0 -5 -4 -10 -10 -10 -5 0 -10 5 -10 10 0 6
5 10 10 10 6 0 10 -4 10 -10z m100 -25 c0 -8 -7 -15 -15 -15 -9 0 -12 6 -9 15
4 8 10 15 15 15 5 0 9 -7 9 -15z m-120 -21 c0 -17 -26 -19 -36 -3 -7 12 15 31
28 23 4 -3 8 -12 8 -20z m200 -14 c0 -5 -4 -10 -10 -10 -5 0 -10 5 -10 10 0 6
5 10 10 10 6 0 10 -4 10 -10z m-2 -52 c-6 -18 -28 -21 -28 -4 0 9 7 16 16 16
9 0 14 -5 12 -12z m-1069 -667 c11 -66 7 -91 -12 -72 -5 5 -12 45 -14 88 -5
91 9 82 26 -16z m-81 -113 c-3 -36 -30 -46 -36 -15 -5 26 5 47 23 47 12 0 15
-8 13 -32z m76 -21 c0 -9 -2 -41 -3 -69 -1 -35 -4 -48 -10 -38 -12 22 -23 108
-16 120 10 16 30 6 29 -13z m-57 -71 c-4 -9 -11 -16 -17 -16 -11 0 -14 33 -3
43 11 11 26 -10 20 -27z m-82 -195 c-3 -12 -11 -21 -16 -21 -10 0 -12 43 -2
53 12 13 25 -10 18 -32z m-29 -195 c-19 -46 -41 -49 -32 -4 8 39 39 78 44 55
2 -8 -4 -31 -12 -51z m77 -85 c-6 -24 -70 -97 -78 -89 -7 7 16 57 48 101 20
30 39 22 30 -12z m57 -16 c0 -8 -4 -15 -10 -15 -5 0 -10 7 -10 15 0 8 5 15 10
15 6 0 10 -7 10 -15z m160 -390 c0 -18 -44 -49 -62 -43 -8 3 -3 14 16 31 33
30 46 34 46 12z m-1 -201 c-28 -30 -98 -68 -107 -59 -7 7 2 15 68 60 48 32 70
32 39 -1z m91 -214 c0 -5 -5 -10 -11 -10 -5 0 -7 5 -4 10 3 6 8 10 11 10 2 0
4 -4 4 -10z m-432 -32 c-6 -16 -36 -34 -44 -25 -9 9 15 37 33 37 8 0 13 -5 11
-12z m392 -28 c0 -5 -4 -10 -10 -10 -5 0 -10 5 -10 10 0 6 5 10 10 10 6 0 10
-4 10 -10z m-560 -20 c0 -5 -4 -10 -10 -10 -5 0 -10 5 -10 10 0 6 5 10 10 10
6 0 10 -4 10 -10z m-195 -21 c-13 -40 -46 -108 -55 -114 -27 -17 -16 60 16
113 19 29 48 30 39 1z m815 -23 c0 -8 -4 -18 -10 -21 -5 -3 -10 3 -10 14 0 12
5 21 10 21 6 0 10 -6 10 -14z m-22 -213 c-4 -48 -28 -57 -28 -10 0 18 3 37 7
40 16 16 24 4 21 -30z m-190 -140 c-2 -10 -13 -19 -26 -21 -24 -4 -29 7 -10
26 18 18 40 15 36 -5z m-6 -68 c0 -5 -5 -11 -11 -13 -6 -2 -11 4 -11 13 0 9 5
15 11 13 6 -2 11 -8 11 -13z m66 -57 c-6 -18 -28 -21 -28 -4 0 9 7 16 16 16 9
0 14 -5 12 -12z m102 -22 c0 -16 -14 -36 -26 -36 -14 0 -19 22 -7 33 7 8 33
10 33 3z m-190 -91 c0 -16 -27 -32 -37 -22 -3 4 -3 13 0 22 8 20 37 20 37 0z
m160 -44 c0 -5 -9 -19 -20 -32 -19 -23 -19 -23 -20 -3 0 20 17 44 32 44 4 0 8
-4 8 -9z m-160 -15 c0 -16 -18 -31 -27 -22 -8 8 5 36 17 36 5 0 10 -6 10 -14z
m140 -65 c0 -5 -7 -14 -15 -21 -12 -10 -15 -10 -15 2 0 8 3 18 7 21 9 10 23 9
23 -2z m-160 -100 c0 -12 -20 -25 -27 -18 -7 7 6 27 18 27 5 0 9 -4 9 -9z m40
-61 c0 -5 -5 -10 -11 -10 -5 0 -7 5 -4 10 3 6 8 10 11 10 2 0 4 -4 4 -10z
m-50 -71 c0 -5 -7 -9 -15 -9 -15 0 -20 12 -9 23 8 8 24 -1 24 -14z m44 -16
c-13 -146 -25 -175 -63 -151 -21 13 -29 48 -11 48 6 0 10 -7 10 -17 0 -29 15
-2 17 30 2 33 11 92 18 115 3 6 11 12 18 12 10 0 13 -11 11 -37z m84 -74 c-3
-24 -33 -48 -44 -36 -4 4 -2 18 4 32 14 31 45 34 40 4z m-28 -104 c-7 -8 -19
-15 -26 -15 -20 0 -17 27 4 39 23 13 39 -3 22 -24z m-80 -29 c0 -29 -26 -54
-41 -39 -13 13 9 63 28 63 7 0 13 -11 13 -24z m84 -15 c7 -10 -31 -61 -45 -61
-15 0 -10 32 8 52 18 20 29 23 37 9z m-94 -69 c0 -21 -18 -42 -37 -42 -7 0
-13 7 -13 15 0 8 -7 15 -15 15 -8 0 -15 5 -15 11 0 6 8 8 19 4 11 -3 22 -1 26
5 10 17 35 11 35 -8z m70 -26 c0 -16 -28 -42 -36 -33 -8 7 14 47 26 47 6 0 10
-6 10 -14z m-140 -61 c0 -8 -4 -15 -10 -15 -5 0 -10 7 -10 15 0 8 5 15 10 15
6 0 10 -7 10 -15z m54 6 c3 -4 -1 -17 -9 -27 -11 -15 -16 -16 -26 -7 -10 10
-9 15 1 28 14 17 26 19 34 6z m68 -56 c-14 -29 -42 -34 -42 -6 0 27 30 55 43
42 7 -7 7 -18 -1 -36z m-92 -99 c0 -25 -12 -46 -26 -46 -15 0 -18 18 -8 44 8
20 34 21 34 2z m-68 -111 c-13 -28 -30 -33 -39 -10 -7 21 27 59 40 46 7 -7 7
-19 -1 -36z m32 -73 c-19 -47 -31 -59 -44 -46 -13 13 0 53 25 78 26 26 36 9
19 -32z m-59 -1 c3 -5 1 -12 -5 -16 -5 -3 -10 1 -10 9 0 18 6 21 15 7z m105
-15 c0 -15 -18 -31 -26 -23 -7 7 7 37 17 37 5 0 9 -6 9 -14z m-50 -214 c0 -10
-7 -28 -16 -41 -13 -18 -18 -20 -25 -10 -14 23 13 85 32 73 5 -3 9 -13 9 -22z
m-40 -146 c0 -8 -4 -18 -10 -21 -5 -3 -10 3 -10 14 0 12 5 21 10 21 6 0 10 -6
10 -14z m-64 -103 c-13 -72 -26 -111 -41 -123 -12 -10 -15 -10 -15 3 0 9 4 18
9 21 4 3 11 30 14 60 6 60 12 76 29 76 6 0 8 -14 4 -37z m-66 -69 c0 -27 -20
-54 -40 -54 -25 0 -25 11 1 44 23 29 39 34 39 10z m140 -44 c0 -5 -4 -10 -10
-10 -5 0 -10 5 -10 10 0 6 5 10 10 10 6 0 10 -4 10 -10z m-157 -142 c-32 -79
-37 -112 -19 -105 24 9 29 -11 10 -40 -15 -24 -18 -25 -29 -10 -11 16 -13 15
-30 -3 -21 -23 -55 -27 -55 -5 0 8 13 21 29 29 34 18 41 32 34 70 l-6 29 -17
-23 c-19 -26 -44 -19 -35 10 7 23 -21 34 -68 25 -24 -5 -37 -2 -46 9 -12 14
-7 18 34 36 26 11 52 17 58 13 7 -4 19 -8 27 -8 8 0 14 -7 13 -15 -2 -8 8 -20
21 -26 21 -10 25 -8 36 15 23 53 41 74 53 62 8 -8 5 -25 -10 -63z m157 52 c0
-5 -4 -10 -10 -10 -5 0 -10 5 -10 10 0 6 5 10 10 10 6 0 10 -4 10 -10z m-100
-30 c0 -5 7 -10 16 -10 18 0 44 -23 44 -39 0 -6 -4 -11 -10 -11 -5 0 -10 5
-10 12 0 6 -10 3 -21 -8 -15 -13 -23 -15 -26 -7 -2 7 -10 10 -18 7 -22 -9 -28
15 -11 41 17 25 36 33 36 15z m-310 -49 c0 -11 -5 -23 -11 -27 -15 -9 -33 12
-26 30 9 23 37 20 37 -3z m85 -72 c0 -8 -10 -15 -22 -17 -25 -4 -33 22 -10 31
18 8 32 2 32 -14z m55 -14 c0 -8 -4 -15 -10 -15 -5 0 -10 7 -10 15 0 8 5 15
10 15 6 0 10 -7 10 -15z m-120 -15 c0 -11 -4 -20 -9 -20 -14 0 -23 18 -16 30
10 17 25 11 25 -10z m18 -58 c2 -7 -3 -12 -12 -12 -9 0 -16 7 -16 16 0 17 22
14 28 -4z m232 -4 c0 -7 -9 -26 -19 -42 -24 -35 -19 -48 15 -40 18 5 24 2 24
-9 0 -22 -18 -31 -34 -18 -10 8 -16 5 -26 -14 -18 -34 -41 -32 -38 3 1 15 -1
32 -5 38 -8 14 50 94 69 94 8 0 14 -6 14 -12z m60 -27 c0 -6 -4 -13 -10 -16
-5 -3 -10 1 -10 9 0 9 5 16 10 16 6 0 10 -4 10 -9z m-180 -20 c0 -11 -4 -23
-10 -26 -16 -10 -12 -23 8 -21 12 1 17 -6 17 -23 0 -30 -21 -39 -28 -11 -3 12
-13 20 -26 20 -26 0 -29 35 -4 62 21 24 43 23 43 -1z m-60 -80 c0 -12 7 -18
18 -17 12 1 17 -6 17 -23 0 -30 -24 -40 -32 -13 -3 14 -11 18 -25 14 -25 -6
-40 16 -27 40 13 24 49 24 49 -1z m196 -58 c-1 -38 -5 -48 -20 -51 -16 -3 -18
0 -12 25 4 15 7 35 7 43 1 26 8 41 17 36 5 -3 8 -27 8 -53z m-116 -18 c0 -14
-4 -25 -10 -25 -5 0 -10 11 -10 25 0 14 5 25 10 25 6 0 10 -11 10 -25z m60
-23 c0 -35 9 -45 27 -30 10 8 17 8 26 -1 21 -21 -6 -46 -53 -48 l-43 -3 7 46
c3 25 8 50 12 55 11 18 24 8 24 -19z m150 -142 c0 -5 -4 -10 -10 -10 -5 0 -10
5 -10 10 0 6 5 10 10 10 6 0 10 -4 10 -10z m-115 -50 c7 -23 -12 -63 -26 -55
-17 11 -7 75 11 75 5 0 11 -9 15 -20z m-78 -26 c7 -18 -17 -38 -31 -24 -11 11
-1 40 14 40 6 0 13 -7 17 -16z m63 -78 c0 -8 -4 -17 -9 -21 -12 -7 -24 12 -16
25 9 15 25 12 25 -4z m-10 -121 c0 -8 -4 -15 -10 -15 -5 0 -10 7 -10 15 0 8 5
15 10 15 6 0 10 -7 10 -15z m-2 -72 c-5 -25 -28 -28 -28 -4 0 12 6 21 16 21 9
0 14 -7 12 -17z m-48 -48 c0 -8 -4 -15 -9 -15 -13 0 -22 16 -14 24 11 11 23 6
23 -9z m-70 -14 c0 -12 -20 -25 -27 -18 -7 7 6 27 18 27 5 0 9 -4 9 -9z m101
-24 c-13 -13 -26 -3 -16 12 3 6 11 8 17 5 6 -4 6 -10 -1 -17z m-61 -1 c0 -20
-26 -40 -35 -26 -10 16 2 40 20 40 8 0 15 -6 15 -14z m188 -33 c-5 -25 -28
-28 -28 -4 0 12 6 21 16 21 9 0 14 -7 12 -17z m-198 -47 c0 -14 -5 -28 -10
-31 -13 -8 -24 20 -16 40 9 24 26 17 26 -9z m157 -10 c-4 -9 -11 -16 -17 -16
-11 0 -14 33 -3 44 11 10 26 -11 20 -28z m-42 -37 c6 -26 0 -41 -42 -102 -59
-86 -73 -93 -73 -38 0 49 15 91 33 91 18 0 47 37 47 60 0 32 28 23 35 -11z
m209 -25 c10 -26 7 -82 -5 -90 -16 -10 -29 15 -29 57 0 48 21 68 34 33z m-344
-34 c0 -5 -4 -10 -10 -10 -5 0 -10 5 -10 10 0 6 5 10 10 10 6 0 10 -4 10 -10z
m-3 -66 c8 -21 -13 -42 -28 -27 -13 13 -5 43 11 43 6 0 13 -7 17 -16z m-99
-232 c4 -26 -16 -65 -29 -57 -10 7 -12 45 -3 70 9 21 28 14 32 -13z m-22 -203
c10 -17 -13 -36 -27 -22 -12 12 -4 33 11 33 5 0 12 -5 16 -11z m34 -224 c0 -8
-4 -15 -10 -15 -5 0 -10 7 -10 15 0 8 5 15 10 15 6 0 10 -7 10 -15z"/>
<path d="M2560 12678 c-60 -17 -61 -30 -1 -22 49 6 54 5 48 -11 -6 -15 -3 -17
25 -13 18 3 41 8 50 12 13 6 20 2 28 -18 10 -27 34 -34 46 -14 9 14 -22 37
-58 45 -15 3 -33 12 -39 19 -13 16 -48 17 -99 2z"/>
<path d="M2392 12580 c-18 -11 -42 -36 -53 -55 -20 -34 -59 -49 -59 -22 -1 6
-8 -1 -17 -18 -9 -16 -38 -53 -64 -82 -50 -53 -67 -83 -26 -46 36 34 202 112
224 107 12 -3 43 7 74 24 30 16 79 38 109 48 49 16 52 18 30 25 -14 4 -41 7
-61 8 -20 1 -42 8 -49 16 -17 21 -69 19 -108 -5z"/>
<path d="M2333 12353 c9 -2 23 -2 30 0 6 3 -1 5 -18 5 -16 0 -22 -2 -12 -5z"/>
<path d="M2130 12309 c-6 -11 -10 -28 -8 -37 2 -10 8 -1 15 21 12 41 10 48 -7
16z"/>
<path d="M2196 12244 c-9 -8 -16 -17 -16 -20 0 -11 30 -2 51 16 24 19 24 19 2
20 -12 0 -29 -7 -37 -16z"/>
<path d="M2234 12154 c-18 -14 -18 -14 6 -3 31 14 36 19 24 19 -6 0 -19 -7
-30 -16z"/>
<path d="M2221 12058 c-34 -28 -61 -57 -61 -65 0 -18 19 -17 26 2 4 9 37 34
75 56 73 43 85 59 45 59 -14 0 -49 -21 -85 -52z"/>
<path d="M2283 11969 c-46 -39 -83 -79 -83 -89 0 -9 9 -25 19 -34 11 -10 21
-28 23 -40 2 -17 8 -13 30 26 16 25 43 58 60 72 30 23 32 27 20 47 -12 19 -11
24 12 48 14 15 26 30 26 34 0 19 -33 0 -107 -64z"/>
<path d="M2966 11883 c-6 -14 -5 -15 5 -6 7 7 10 15 7 18 -3 3 -9 -2 -12 -12z"/>
<path d="M2126 11823 c-23 -31 -9 -48 21 -25 18 14 20 20 10 33 -11 15 -14 14
-31 -8z"/>
<path d="M2307 11774 c-4 -4 -7 -14 -7 -23 0 -11 3 -12 11 -4 6 6 10 16 7 23
-2 6 -7 8 -11 4z"/>
<path d="M2450 11705 c0 -9 -11 -27 -25 -41 -31 -31 -31 -42 -2 -46 17 -2 24
-13 31 -45 9 -41 28 -59 47 -47 14 8 11 87 -5 109 -7 11 -17 35 -21 53 -7 33
-25 45 -25 17z"/>
<path d="M2230 11674 c0 -10 5 -26 10 -34 8 -11 9 -7 4 15 -8 37 -14 45 -14
19z"/>
<path d="M2421 11478 c0 -7 4 -22 9 -33 8 -18 9 -17 9 7 1 15 -3 30 -9 33 -5
3 -10 0 -9 -7z"/>
<path d="M2405 11260 c-6 -10 5 -64 12 -57 2 2 8 18 13 36 7 24 6 31 -5 31 -8
0 -16 -4 -20 -10z"/>
<path d="M2332 10997 c-11 -23 -33 -62 -48 -87 -24 -40 -25 -43 -5 -26 22 20
87 143 79 151 -2 2 -14 -14 -26 -38z"/>
<path d="M2749 10833 c17 -32 66 -45 106 -29 53 23 52 36 -3 36 -27 0 -64 3
-82 6 -30 7 -32 6 -21 -13z"/>
<path d="M460 10765 c19 -7 42 -13 50 -13 8 0 -1 6 -20 13 -19 7 -42 13 -50
13 -8 0 1 -6 20 -13z"/>
<path d="M3160 10766 c0 -15 21 -26 47 -26 11 0 8 6 -10 20 -30 24 -37 25 -37
6z"/>
<path d="M3297 10749 c4 -15 0 -19 -18 -19 -21 -1 -20 -3 11 -20 19 -11 43
-19 53 -20 29 0 19 34 -17 57 -32 21 -34 21 -29 2z"/>
<path d="M3810 10760 c20 -13 33 -13 25 0 -3 6 -14 10 -23 10 -15 0 -15 -2 -2
-10z"/>
<path d="M2023 10723 c-61 -38 -117 -78 -98 -70 22 9 175 99 175 103 0 10 -21
1 -77 -33z"/>
<path d="M256 10728 c-10 -15 -16 -33 -14 -39 2 -6 12 0 22 15 9 15 16 32 13
39 -2 6 -11 -1 -21 -15z"/>
<path d="M550 10740 c25 -8 87 -13 79 -6 -2 2 -26 6 -54 9 -34 4 -42 3 -25 -3z"/>
<path d="M3629 10714 c41 -13 77 -22 79 -19 4 4 -130 46 -144 44 -5 -1 25 -12
65 -25z"/>
<path d="M865 10690 c5 -8 21 -34 37 -57 31 -46 34 -58 15 -70 -7 -4 -18 -20
-24 -35 -15 -35 -46 -36 -103 -7 -45 24 -200 42 -200 24 0 -6 -16 -41 -36 -79
-33 -61 -35 -70 -20 -78 9 -5 16 -16 16 -24 0 -22 -80 -104 -101 -104 -10 0
-20 -4 -23 -9 -8 -12 132 -32 153 -22 9 5 30 15 47 24 28 15 32 15 62 -3 33
-20 43 -50 18 -50 -8 0 -16 -7 -20 -15 -3 -8 -13 -15 -23 -15 -14 -1 -12 -4 7
-14 33 -18 86 -10 69 10 -9 11 -7 14 12 14 28 0 43 -9 51 -31 3 -8 25 -21 47
-28 28 -8 45 -20 51 -35 5 -13 15 -26 22 -29 7 -2 10 -8 5 -12 -8 -10 -131 11
-159 26 -11 6 -17 17 -14 24 3 10 -5 16 -27 19 -18 2 -106 16 -197 30 -91 14
-177 23 -191 20 -15 -3 -37 0 -50 6 -22 12 -22 11 4 -17 15 -17 51 -40 80 -53
170 -76 218 -100 266 -133 29 -20 61 -37 71 -37 10 0 23 -7 31 -16 7 -9 30
-23 51 -31 21 -8 47 -26 58 -40 10 -13 27 -23 37 -21 13 2 19 -5 23 -27 3 -18
11 -30 20 -30 8 0 16 -10 18 -22 2 -13 10 -23 18 -23 8 0 14 -7 14 -15 0 -8 9
-15 20 -15 17 0 20 -7 20 -39 0 -42 13 -57 43 -53 12 2 17 -3 17 -18 0 -16 5
-20 15 -16 27 10 33 -72 10 -141 -6 -18 -3 -23 9 -23 11 0 16 -9 16 -32 0 -63
11 -19 18 73 7 92 16 110 37 72 6 -10 15 -21 20 -25 6 -5 5 -8 -2 -8 -7 0 -13
-11 -13 -25 0 -16 6 -25 15 -25 11 0 15 -12 15 -50 0 -37 4 -50 15 -50 9 0 16
14 20 38 12 72 15 82 30 82 8 0 15 9 15 19 0 32 19 34 27 4 4 -15 8 -88 8
-161 0 -98 3 -132 12 -132 16 0 22 28 25 110 2 50 6 65 18 65 8 0 16 -9 18
-20 2 -11 6 -27 9 -35 3 -8 5 -23 4 -33 -1 -9 5 -24 13 -33 9 -8 16 -26 16
-40 0 -13 5 -24 11 -24 6 0 19 -10 29 -22 16 -19 18 -33 13 -76 -6 -50 9 -123
29 -146 11 -13 10 -117 -2 -136 -5 -8 -13 -11 -17 -6 -4 4 -13 -14 -18 -41 -9
-39 -15 -49 -34 -51 -25 -4 -25 -2 -5 78 5 20 1 18 -20 -13 -29 -40 -28 -71 3
-94 13 -9 14 -14 3 -24 -9 -10 -19 -11 -42 -2 -22 8 -38 8 -59 0 -25 -9 -33
-8 -49 6 -10 9 -22 17 -26 17 -5 0 -31 16 -58 36 -27 20 -52 33 -55 30 -4 -4
17 -31 47 -61 45 -45 63 -56 106 -65 108 -23 185 13 312 144 100 103 151 175
211 294 23 46 49 86 57 89 20 7 50 -28 106 -122 22 -38 65 -109 94 -156 64
-103 104 -186 104 -217 l0 -23 35 26 c44 35 63 24 35 -19 -11 -19 -20 -41 -20
-51 0 -9 -22 -43 -48 -74 -27 -31 -57 -69 -66 -86 -10 -16 -12 -23 -5 -14 19
21 53 39 77 39 20 0 192 172 192 191 0 6 10 9 23 7 30 -3 63 30 59 60 -2 13 3
31 11 40 8 9 17 25 20 35 7 20 47 23 47 3 0 -7 -6 -19 -14 -25 -8 -7 -12 -20
-9 -30 3 -12 -4 -25 -18 -35 -13 -8 -19 -19 -15 -23 12 -13 44 33 67 99 23 61
54 93 82 82 14 -5 15 2 12 48 -2 29 -4 76 -5 104 0 48 -1 51 -24 47 -20 -4
-24 0 -29 29 -2 18 0 39 7 47 8 11 8 15 -1 18 -7 3 -13 11 -13 19 0 8 -9 14
-19 14 -11 0 -23 4 -26 10 -3 5 -43 7 -98 4 -108 -6 -151 3 -155 34 -2 15 -15
25 -42 33 -49 15 -61 39 -20 39 17 0 30 5 30 10 0 6 5 10 11 10 5 0 7 -5 4
-10 -3 -6 6 -15 20 -20 33 -12 95 -13 95 -1 0 5 28 12 62 16 34 4 91 16 127
26 80 23 81 23 81 3 0 -13 4 -13 30 3 17 9 30 25 30 35 0 9 34 44 75 78 41 34
75 67 75 73 -1 7 -9 2 -19 -10 -20 -24 -41 -30 -41 -13 0 23 35 79 51 83 11 3
19 14 19 25 0 11 7 22 15 24 9 2 29 33 47 70 28 61 29 68 15 82 -9 9 -20 16
-26 16 -6 0 -11 7 -11 15 0 24 -36 55 -49 42 -7 -7 -13 -2 -21 17 -12 33 -43
32 -48 -3 -2 -15 0 -21 7 -17 7 5 11 -8 11 -38 0 -75 -21 -101 -41 -49 -12 32
-23 23 -42 -32 -15 -43 -34 -56 -105 -75 -33 -9 -41 -14 -33 -24 15 -18 -6
-36 -41 -36 -18 0 -28 5 -28 15 0 19 -11 19 -36 0 -17 -13 -17 -14 -1 -15 17
0 24 -34 9 -44 -13 -8 -53 23 -50 38 2 7 -12 25 -29 40 -18 15 -33 22 -33 16
0 -8 -9 -11 -24 -8 -19 4 -26 0 -30 -19 -4 -12 -10 -23 -15 -23 -21 0 -74 56
-97 101 -25 50 -47 62 -58 33 -6 -15 -8 -15 -26 1 -19 18 -20 17 -20 -10 0
-31 -15 -24 -22 10 -2 12 -10 19 -21 17 -12 -2 -18 7 -23 36 -5 32 -12 41 -45
55 -32 14 -39 22 -39 46 0 21 -5 28 -17 27 -16 -1 -18 8 -17 71 1 57 -1 70
-12 66 -8 -3 -21 0 -29 7 -13 11 -15 7 -15 -22 0 -41 -8 -52 -26 -37 -8 6 -11
22 -8 38 5 23 2 29 -15 34 -18 4 -21 1 -21 -30 0 -41 -15 -73 -35 -73 -12 0
-14 -9 -9 -42 6 -36 5 -40 -9 -35 -14 5 -17 0 -17 -28 0 -53 -25 -45 -112 39
-73 69 -78 77 -78 115 0 45 -14 55 -24 16 -9 -36 -32 -31 -78 15 -33 32 -39
45 -34 65 6 24 -7 35 -19 15 -10 -16 -53 12 -136 87 -41 38 -112 97 -157 131
-92 70 -96 77 -124 176 -20 73 -61 148 -100 182 -14 12 -18 14 -13 4z m-30
-213 c39 -22 86 -49 106 -58 44 -22 163 -110 290 -215 161 -133 501 -450 554
-516 28 -34 76 -89 108 -122 78 -81 104 -122 112 -178 4 -34 17 -60 42 -90 52
-62 60 -85 40 -105 -15 -16 -18 -15 -40 5 -32 30 -46 28 -17 -3 26 -27 20 -46
-9 -28 -10 6 -36 9 -58 6 -38 -5 -42 -3 -79 42 -80 98 -168 186 -183 183 -22
-3 -41 10 -35 25 2 7 -64 73 -148 150 -84 75 -223 205 -308 288 -116 112 -214
195 -387 324 -128 96 -240 186 -249 200 -15 23 -15 31 -4 68 7 23 14 47 16 54
3 12 107 23 154 16 14 -2 57 -23 95 -46z m-231 -186 c19 -35 13 -41 -35 -41
-46 0 -56 13 -35 45 22 34 52 32 70 -4z m-28 -221 c32 -6 82 -16 109 -22 47
-11 48 -12 20 -18 -26 -5 -21 -8 43 -24 56 -14 72 -22 68 -33 -4 -9 1 -17 14
-20 11 -3 20 -10 20 -15 0 -12 -42 0 -55 16 -5 7 -39 18 -75 25 -75 15 -100
26 -100 46 0 15 -13 20 -72 31 -21 3 -38 10 -38 15 0 11 -6 11 66 -1z m328
-66 c22 -9 20 -24 -3 -24 -21 0 -34 13 -24 24 8 7 8 7 27 0z m150 -74 c20 -20
-4 -21 -41 0 l-38 21 35 -6 c19 -3 39 -10 44 -15z m806 0 c0 -11 -7 -20 -15
-20 -8 0 -15 9 -15 20 0 11 7 20 15 20 8 0 15 -9 15 -20z m-20 -166 c0 -13 10
-44 22 -69 17 -36 19 -48 10 -57 -10 -10 -18 -6 -37 17 -14 17 -28 42 -31 57
-4 15 -12 29 -20 32 -20 8 -17 23 7 47 16 16 23 18 35 8 8 -6 14 -22 14 -35z
m-488 -81 c72 -65 146 -131 164 -146 28 -23 34 -36 34 -67 0 -33 8 -48 53 -97
78 -86 78 -87 93 -170 13 -76 11 -99 -6 -88 -5 3 -9 -39 -8 -98 1 -57 -2 -110
-7 -117 -15 -24 -24 19 -24 118 -1 81 -3 95 -18 99 -24 6 -74 122 -63 144 6
11 -1 30 -26 64 -36 52 -41 70 -21 79 14 6 -111 130 -155 152 -16 8 -58 59
-98 119 -111 166 -96 168 82 8z m-172 6 c0 -66 -24 -62 -28 4 -2 37 0 47 12
47 12 0 16 -12 16 -51z m1428 -151 c-7 -20 -58 -23 -58 -4 0 11 10 16 31 16
20 0 29 -4 27 -12z m-128 -78 c0 -5 -4 -10 -10 -10 -5 0 -10 5 -10 10 0 6 5
10 10 10 6 0 10 -4 10 -10z m225 -41 c0 -7 -8 -15 -17 -17 -18 -3 -25 18 -11
32 10 10 28 1 28 -15z m-79 -32 c2 -24 -2 -31 -32 -43 -18 -8 -80 -19 -136
-25 -135 -13 -218 0 -218 36 0 12 10 14 55 9 48 -6 58 -4 70 12 14 18 15 18
21 -3 4 -14 14 -23 26 -23 14 0 18 5 15 15 -4 8 -1 18 6 22 22 14 113 32 151
30 35 -2 39 -5 42 -30z m-381 13 c3 -5 2 -10 -4 -10 -5 0 -13 5 -16 10 -3 6
-2 10 4 10 5 0 13 -4 16 -10z m-417 -153 c3 -21 -1 -27 -16 -27 -22 0 -34 22
-25 45 9 25 38 13 41 -18z m390 -36 c17 -7 32 -16 32 -20 0 -4 16 -31 35 -61
45 -70 61 -118 45 -133 -17 -17 -67 43 -118 142 -42 81 -48 96 -34 89 4 -3 22
-10 40 -17z m342 -82 c0 -5 -7 -9 -15 -9 -15 0 -20 12 -9 23 8 8 24 -1 24 -14z
m-75 -9 c-3 -5 -15 -10 -26 -10 -10 0 -19 5 -19 10 0 6 12 10 26 10 14 0 23
-4 19 -10z m-276 -160 c9 -27 6 -40 -9 -40 -12 0 -51 80 -45 91 10 14 41 -16
54 -51z m-155 8 c20 -27 20 -38 3 -38 -11 0 -37 39 -37 55 0 13 21 2 34 -17z
m556 7 c0 -8 -4 -15 -9 -15 -13 0 -22 16 -14 24 11 11 23 6 23 -9z m-466 -31
c10 -26 7 -44 -8 -44 -14 0 -26 21 -26 46 0 19 26 18 34 -2z m-524 -54 c0 -39
-18 -83 -30 -75 -13 8 -13 30 1 78 11 42 29 41 29 -3z m595 -20 c3 -11 3 -25
0 -30 -10 -16 -35 8 -35 31 0 25 27 24 35 -1z m83 -292 c-6 -16 -36 -34 -44
-25 -9 9 15 37 33 37 8 0 13 -5 11 -12z"/>
<path d="M2030 9251 c0 -5 5 -13 10 -16 6 -3 10 -2 10 4 0 5 -4 13 -10 16 -5
3 -10 2 -10 -4z"/>
<path d="M3170 10680 c0 -5 12 -10 28 -10 21 0 24 2 12 10 -20 13 -40 13 -40
0z"/>
<path d="M535 10590 c-3 -5 1 -10 10 -10 9 0 13 5 10 10 -3 6 -8 10 -10 10 -2
0 -7 -4 -10 -10z"/>
<path d="M150 10555 c0 -8 5 -15 10 -15 6 0 10 7 10 15 0 8 -4 15 -10 15 -5 0
-10 -7 -10 -15z"/>
<path d="M1532 10436 c-43 -46 -67 -85 -59 -93 3 -3 13 9 22 27 9 17 32 49 52
71 19 21 33 39 30 39 -2 0 -23 -20 -45 -44z"/>
<path d="M3916 10375 c4 -8 8 -15 10 -15 2 0 4 7 4 15 0 8 -4 15 -10 15 -5 0
-7 -7 -4 -15z"/>
<path d="M225 10279 c10 -31 21 -43 34 -35 16 11 13 19 -15 40 l-26 19 7 -24z"/>
<path d="M1859 10213 c-24 -69 -33 -85 -52 -98 -17 -12 -19 -17 -8 -27 10 -11
14 -10 22 5 6 9 17 17 24 17 9 0 15 10 15 26 0 33 17 64 34 64 9 0 12 7 9 20
-8 29 -32 25 -44 -7z"/>
<path d="M1792 10210 c0 -14 2 -19 5 -12 2 6 2 18 0 25 -3 6 -5 1 -5 -13z"/>
<path d="M2083 9840 c0 -36 2 -50 4 -32 2 17 2 47 0 65 -2 17 -4 3 -4 -33z"/>
<path d="M2600 9880 c0 -5 -8 -10 -19 -10 -24 0 -43 -23 -39 -47 2 -13 15 -20
48 -24 25 -3 46 -5 48 -4 7 5 -21 95 -29 95 -5 0 -9 -4 -9 -10z"/>
<path d="M711 9864 c0 -11 3 -14 6 -6 3 7 2 16 -1 19 -3 4 -6 -2 -5 -13z"/>
<path d="M3287 9596 c-3 -8 -18 -16 -33 -18 -15 -2 -29 -9 -32 -16 -3 -9 3
-11 21 -7 14 4 28 2 31 -4 12 -20 24 -12 28 19 5 32 -6 50 -15 26z"/>
<path d="M842 9300 c0 -14 2 -19 5 -12 2 6 2 18 0 25 -3 6 -5 1 -5 -13z"/>
<path d="M2627 9284 c-4 -4 -29 -12 -57 -18 -55 -12 -70 -29 -32 -34 30 -4 75
14 98 39 15 17 7 29 -9 13z"/>
<path d="M851 9254 c0 -11 3 -14 6 -6 3 7 2 16 -1 19 -3 4 -6 -2 -5 -13z"/>
<path d="M861 9204 c0 -11 3 -14 6 -6 3 7 2 16 -1 19 -3 4 -6 -2 -5 -13z"/>
<path d="M2660 9181 c-5 -11 -10 -46 -10 -77 0 -54 1 -57 17 -42 13 14 14 20
3 33 -11 13 -10 19 4 34 12 13 14 21 6 26 -6 4 -8 15 -5 26 8 25 -1 25 -15 0z"/>
<path d="M1221 9134 c0 -11 3 -14 6 -6 3 7 2 16 -1 19 -3 4 -6 -2 -5 -13z"/>
<path d="M900 9077 c0 -14 68 -142 86 -162 11 -12 16 -16 12 -10 -4 6 -27 49
-52 95 -25 47 -46 82 -46 77z"/>
<path d="M3062 8970 c-12 -5 -28 -7 -36 -4 -8 3 -19 -3 -24 -13 -10 -19 -5
-80 8 -88 4 -3 4 -22 -1 -42 -5 -21 -9 -55 -9 -75 0 -26 -5 -38 -17 -43 -19
-6 -78 -85 -64 -85 4 0 20 9 34 20 30 23 47 26 47 6 0 -8 5 -16 12 -18 14 -5
-46 -139 -73 -164 -14 -13 -16 -21 -8 -35 7 -15 5 -27 -8 -50 -14 -24 -15 -31
-5 -38 9 -5 11 -17 6 -34 -9 -40 3 -33 27 15 12 23 23 69 26 102 3 37 14 79
28 106 33 64 73 208 80 288 3 37 8 88 11 115 5 49 3 51 -34 37z"/>
<path d="M1265 8864 c9 -9 19 -13 23 -10 3 4 0 11 -8 16 -24 15 -33 11 -15 -6z"/>
<path d="M1333 8862 c-28 -4 -30 -33 -4 -49 17 -11 20 -9 26 18 8 35 7 36 -22
31z"/>
<path d="M3436 8555 c-9 -26 -7 -32 5 -12 6 10 9 21 6 23 -2 3 -7 -2 -11 -11z"/>
<path d="M2124 8518 c-11 -13 -28 -34 -39 -48 -16 -21 -14 -20 14 5 29 27 58
65 48 65 -2 0 -12 -10 -23 -22z"/>
<path d="M2049 8423 c-13 -16 -12 -17 4 -4 16 13 21 21 13 21 -2 0 -10 -8 -17
-17z"/>
<path d="M2123 8345 c-9 -24 1 -27 15 -5 8 13 8 20 2 20 -6 0 -13 -7 -17 -15z"/>
<path d="M2054 8316 c-9 -15 -14 -29 -11 -32 3 -3 13 6 23 20 9 15 14 29 11
32 -3 3 -13 -6 -23 -20z"/>
<path d="M2780 8289 c0 -17 4 -28 10 -24 6 3 10 17 10 31 0 13 -4 24 -10 24
-5 0 -10 -14 -10 -31z"/>
<path d="M2885 8250 c-3 -5 -2 -10 4 -10 5 0 13 5 16 10 3 6 2 10 -4 10 -5 0
-13 -4 -16 -10z"/>
<path d="M3455 8240 c-7 -12 2 -30 16 -30 5 0 9 9 9 20 0 21 -15 27 -25 10z"/>
<path d="M2737 8226 c-9 -7 -17 -17 -17 -21 0 -12 91 2 106 16 11 12 7 14 -29
16 -23 1 -50 -4 -60 -11z"/>
<path d="M3063 8198 c-7 -7 -13 -36 -15 -63 l-3 -49 -40 -2 c-22 -1 -45 3 -51
7 -7 6 -22 6 -37 0 -32 -12 -42 -3 -20 21 15 17 15 19 -3 33 -18 14 -18 16 -1
26 31 18 18 27 -25 17 -24 -6 -61 -11 -82 -12 -51 -1 -62 -26 -12 -26 36 0 36
0 31 -38 -4 -33 0 -43 25 -67 22 -21 35 -26 54 -21 13 3 36 2 51 -4 23 -9 34
-5 83 29 83 56 86 60 69 116 -10 37 -15 44 -24 33z"/>
<path d="M1906 8143 c-9 -27 -30 -81 -46 -120 -29 -74 -32 -96 -6 -45 19 37
77 204 73 209 -2 2 -12 -18 -21 -44z"/>
<path d="M1675 7746 c-27 -12 -56 -30 -64 -40 -9 -11 7 -6 47 14 33 16 64 34
67 40 8 13 7 13 -50 -14z"/>
<path d="M1900 7606 c0 -2 7 -9 15 -16 13 -11 14 -10 9 4 -5 14 -24 23 -24 12z"/>
<path d="M1976 7555 c-4 -11 20 -32 85 -75 94 -62 104 -66 113 -51 8 12 -163
141 -187 141 -3 0 -8 -7 -11 -15z"/>
<path d="M3274 7548 l-19 -23 23 19 c21 18 27 26 19 26 -2 0 -12 -10 -23 -22z"/>
<path d="M3260 7429 c-36 -34 -51 -52 -35 -41 29 19 114 102 105 102 -3 -1
-34 -28 -70 -61z"/>
<path d="M1921 7466 c2 -2 15 -9 29 -16 23 -12 24 -12 11 3 -7 10 -20 17 -29
17 -8 0 -13 -2 -11 -4z"/>
<path d="M2245 7390 c3 -5 10 -10 16 -10 5 0 9 5 9 10 0 6 -7 10 -16 10 -8 0
-12 -4 -9 -10z"/>
<path d="M2073 7356 c-10 -12 -1 -22 50 -55 52 -34 306 -161 322 -161 3 0 5 7
5 15 0 10 -10 15 -29 15 -18 0 -35 8 -43 19 -8 11 -48 37 -90 59 -42 22 -103
59 -136 81 -33 23 -61 41 -63 41 -2 -1 -9 -7 -16 -14z"/>
<path d="M3178 7296 c-42 -23 -45 -41 -7 -41 16 0 25 7 28 20 2 11 8 23 14 27
6 4 9 9 7 11 -3 2 -22 -6 -42 -17z"/>
<path d="M1757 7281 c17 -16 36 -38 42 -50 6 -11 43 -41 82 -66 56 -36 68 -49
60 -59 -9 -11 6 -21 79 -50 49 -20 93 -36 95 -36 15 0 -71 63 -157 115 -92 56
-119 86 -87 97 12 4 -121 78 -137 78 -5 0 5 -14 23 -29z"/>
<path d="M3584 7285 c-10 -8 -32 -15 -49 -15 -16 0 -37 -5 -45 -11 -11 -8 -5
-9 25 -5 65 9 116 26 110 37 -8 13 -18 11 -41 -6z"/>
<path d="M1496 7155 c3 -60 7 -130 10 -155 5 -39 8 -42 18 -27 9 11 11 41 8
93 -5 75 -4 76 18 72 45 -6 95 -152 60 -173 -5 -3 -10 -30 -10 -60 0 -61 -14
-79 -32 -41 -6 14 -14 26 -18 26 -3 0 -4 -44 -2 -97 3 -92 2 -97 -13 -78 -16
19 -17 18 -11 -20 3 -22 8 -69 11 -105 10 -102 115 -862 125 -895 l8 -30 1 35
c1 26 4 31 11 20 8 -12 10 -9 10 12 0 15 7 31 15 35 17 10 9 53 -10 53 -13 0
-25 21 -25 46 0 8 7 14 16 14 13 0 15 6 9 28 -16 56 -27 108 -32 146 -8 55 19
43 32 -15 6 -24 18 -56 29 -72 13 -19 17 -36 12 -58 -4 -20 5 -71 25 -146 31
-115 32 -143 5 -143 -12 0 -13 -11 -9 -56 4 -39 2 -58 -6 -64 -10 -5 -9 -23 3
-81 8 -41 20 -123 26 -184 6 -60 16 -118 21 -128 6 -10 7 -33 4 -50 -4 -23 -3
-28 4 -17 8 12 12 9 21 -15 26 -68 40 -192 20 -180 -6 4 -10 -6 -9 -22 1 -35
12 -65 24 -63 5 1 11 -3 13 -9 2 -6 -3 -11 -12 -11 -11 0 -14 -7 -11 -27 14
-83 25 -239 25 -360 0 -112 -3 -143 -16 -162 -14 -20 -16 -41 -11 -130 3 -58
11 -140 17 -182 11 -68 14 -76 31 -72 16 5 19 0 19 -33 0 -22 5 -55 10 -74 7
-24 7 -123 -1 -315 -7 -154 -12 -296 -11 -315 4 -167 0 -391 -8 -422 -7 -25
-17 -38 -28 -38 -27 0 -77 -218 -77 -340 -1 -132 -14 -326 -27 -383 -6 -30
-17 -51 -31 -58 -18 -10 -19 -12 -4 -21 35 -19 9 -154 -37 -193 -31 -27 -32
-26 42 -45 44 -11 50 -18 30 -38 -16 -16 4 -16 91 -1 49 9 100 9 210 -1 147
-12 312 -3 386 20 32 11 62 55 41 64 -6 2 28 5 76 5 48 1 89 5 93 10 7 13 -56
25 -92 17 -38 -8 -61 7 -44 28 11 13 28 15 95 10 44 -3 92 -10 106 -14 20 -8
83 -13 213 -20 5 0 7 -6 5 -12 -3 -8 -28 -15 -58 -18 -79 -7 -78 -30 1 -30 62
0 133 -15 157 -34 8 -5 12 -20 9 -33 -4 -21 -1 -23 35 -23 21 0 50 -7 64 -16
32 -21 47 -7 15 15 -13 9 -33 26 -46 39 -12 12 -27 22 -34 22 -6 0 -11 9 -11
20 0 11 -7 20 -15 20 -8 0 -15 8 -15 19 0 10 -9 21 -19 24 -14 3 -18 11 -14
26 4 15 1 21 -11 21 -21 0 -20 15 5 69 13 31 16 48 9 55 -5 5 -10 23 -10 39 0
15 -5 37 -10 47 -7 12 -7 28 0 44 6 16 6 27 0 31 -13 8 -13 61 1 86 8 16 7 23
-7 33 -15 11 -15 18 -5 46 9 26 8 35 -1 41 -9 6 -9 16 0 46 10 31 9 39 -3 46
-9 4 -13 12 -10 16 2 5 -2 14 -10 21 -19 16 -19 28 1 65 12 23 13 34 3 51 -8
17 -9 31 -1 54 9 23 8 36 -1 51 -10 16 -9 25 6 51 16 28 16 33 3 40 -19 10
-21 50 -5 80 9 17 8 23 -5 30 -9 5 -16 22 -16 38 0 19 -5 30 -14 30 -8 0 -17
6 -20 13 -3 6 -4 -5 -1 -25 3 -21 1 -47 -5 -58 -9 -16 -8 -25 1 -36 7 -8 9
-30 6 -54 -3 -22 -1 -43 4 -46 12 -7 11 -65 0 -83 -6 -9 -4 -22 4 -35 11 -18
11 -27 0 -61 -9 -24 -11 -41 -5 -43 15 -5 12 -48 -5 -88 -21 -50 -40 -39 -40
22 0 27 -3 54 -7 60 -4 5 -3 28 2 49 6 26 5 44 -2 52 -6 8 -8 31 -4 57 4 26 3
47 -3 50 -6 4 -11 -11 -13 -36 -2 -30 -7 -43 -18 -43 -11 0 -16 14 -18 53 -3
45 0 54 15 58 22 6 46 73 32 90 -5 6 -7 24 -3 40 3 16 1 40 -5 54 -7 19 -10 3
-10 -73 -1 -74 -4 -98 -13 -95 -8 3 -14 30 -16 74 -2 38 -7 73 -13 79 -13 13
-12 -394 3 -657 10 -177 9 -219 -1 -232 -19 -22 -107 -22 -119 0 -6 11 -11 13
-16 5 -16 -26 -36 -11 -36 28 0 38 -1 39 -25 28 -23 -11 -24 -17 -27 -112 -2
-81 -6 -100 -18 -100 -8 0 -17 11 -19 25 -3 23 -4 23 -11 5 -5 -13 -17 -20
-38 -21 -18 -1 -32 3 -32 8 0 6 -7 5 -16 -3 -13 -10 -17 -10 -24 1 -12 19 8
53 26 46 11 -4 14 10 14 77 -1 61 -3 77 -11 65 -5 -10 -18 -18 -29 -18 -22 0
-22 -2 -51 -135 -21 -102 -45 -145 -80 -145 -9 0 -24 -15 -33 -35 -41 -86
-138 -88 -182 -3 -14 27 -14 31 2 49 9 10 24 19 33 19 9 1 27 10 40 20 20 17
21 23 11 36 -12 13 -16 11 -33 -15 -10 -17 -27 -31 -38 -31 -11 0 -28 -17 -45
-45 l-26 -45 -59 0 c-33 0 -59 4 -59 10 0 6 -11 10 -25 10 -24 0 -25 2 -25 65
0 51 -3 65 -15 65 -8 0 -15 6 -15 14 0 28 12 46 31 46 10 0 23 9 29 20 8 15
17 19 31 15 11 -4 19 -2 19 4 0 6 -7 11 -15 11 -17 0 -20 32 -5 61 6 10 19 19
29 19 10 0 24 7 31 15 7 8 18 15 25 15 7 0 18 7 25 15 7 8 22 15 34 15 12 0
27 9 34 20 16 26 30 25 34 -2 3 -20 8 -17 65 30 69 58 92 90 73 102 -7 4 -10
26 -8 56 2 40 7 51 26 59 12 5 25 17 27 26 3 10 12 20 20 23 9 3 15 19 15 40
0 42 33 87 50 69 7 -6 11 -30 9 -56 -3 -35 -1 -43 8 -35 7 5 15 18 18 29 4 10
13 19 21 19 8 0 14 7 14 15 0 8 -9 15 -20 15 -17 0 -20 7 -20 49 0 32 5 53 16
61 8 8 21 28 29 47 8 18 21 33 29 33 10 0 16 8 15 23 0 12 -3 16 -6 10 -7 -18
-42 -16 -50 3 -3 8 -1 26 5 40 10 21 9 24 -8 24 -15 0 -20 -7 -20 -26 0 -16
-5 -24 -12 -22 -19 6 -22 48 -5 61 23 19 30 65 12 83 -15 16 -20 69 -9 98 3 9
17 16 30 16 21 0 24 5 24 34 0 19 -4 38 -10 41 -6 3 -10 -4 -10 -17 0 -46 -52
-67 -65 -27 -10 30 13 79 37 79 14 0 18 5 14 18 -3 9 3 34 13 53 l19 36 -23
-5 c-19 -3 -23 -10 -22 -38 1 -21 -6 -41 -17 -52 -16 -16 -18 -16 -32 3 -10
12 -14 32 -10 52 3 21 -1 36 -10 44 -10 8 -14 27 -13 55 2 24 -3 49 -10 58 -9
10 -11 29 -8 50 4 25 1 36 -9 40 -16 6 -18 39 -4 67 8 15 7 19 -4 19 -19 0
-25 19 -15 53 4 15 4 27 -1 27 -20 0 -30 38 -19 69 9 25 8 34 -5 46 -10 10
-13 26 -10 44 4 20 1 30 -10 34 -18 7 -22 58 -6 88 9 15 7 19 -5 19 -20 0 -37
44 -29 76 12 48 54 25 54 -31 0 -13 10 -34 22 -48 l22 -25 11 22 c18 36 39 26
46 -24 4 -28 7 -35 7 -17 1 15 9 30 17 33 22 9 18 31 -5 37 -14 3 -20 14 -20
31 0 32 18 34 29 4 4 -12 10 -17 14 -11 4 6 0 24 -8 41 -11 22 -13 37 -5 56 5
15 6 26 0 26 -5 0 -10 -10 -12 -22 -4 -33 -38 -37 -38 -4 0 14 6 29 14 33 15
9 27 83 14 83 -4 0 -8 -6 -8 -14 0 -7 -6 -19 -14 -26 -8 -6 -16 -25 -18 -42
-4 -37 -31 -59 -50 -40 -7 7 -12 30 -11 52 2 39 2 39 -18 19 -10 -10 -19 -32
-19 -47 0 -56 -49 -83 -67 -37 -8 21 17 67 40 73 11 3 17 14 17 33 0 19 5 29
15 29 9 0 15 9 15 24 0 20 -4 22 -26 18 -22 -4 -25 -2 -22 19 4 28 38 40 38
13 0 -14 3 -15 12 -6 10 10 10 15 -1 21 -9 6 -12 22 -9 50 2 27 -1 42 -9 45
-7 3 -13 15 -13 27 0 18 -3 19 -15 9 -8 -6 -19 -9 -25 -5 -15 9 -12 61 5 75 8
7 15 21 15 32 0 31 19 58 40 58 17 0 20 -7 20 -41 0 -32 3 -40 15 -35 17 6 19
-10 6 -66 -5 -22 -5 -38 0 -38 5 0 9 9 9 20 0 26 26 26 33 -1 3 -13 -1 -26
-13 -36 -22 -19 -16 -43 10 -36 10 3 16 11 14 17 -3 7 0 25 6 41 9 23 8 30 -5
37 -27 16 -12 98 18 98 7 0 18 18 24 40 5 22 7 40 3 40 -4 0 -11 -12 -15 -27
-13 -55 -50 -72 -61 -29 -4 18 -11 22 -25 19 -15 -4 -22 0 -26 15 -5 20 -7 20
-33 7 -16 -8 -30 -25 -32 -37 -6 -43 -34 -33 -48 17 -11 41 -30 62 -30 34 0
-8 -5 -8 -15 1 -20 16 -20 80 -1 80 8 0 18 -10 21 -21 6 -17 9 -19 16 -8 8 11
12 10 24 -6 14 -17 15 -15 9 28 -5 31 -3 47 4 47 6 0 14 -4 17 -10 13 -22 25
-8 25 29 0 54 -8 70 -31 64 -12 -3 -19 -14 -19 -29 0 -12 -4 -26 -10 -29 -5
-3 -10 -17 -10 -31 0 -31 -17 -31 -32 1 -8 19 -8 28 2 40 8 9 10 27 6 49 -5
24 -2 37 9 46 8 7 15 26 15 42 0 16 6 31 15 34 10 4 14 18 12 44 -3 47 -17 66
-17 24 0 -38 -14 -58 -34 -51 -10 4 -16 18 -16 40 0 19 -7 40 -15 47 -16 14
-55 133 -55 171 0 23 -1 23 -15 -5 -8 -15 -15 -37 -15 -47 0 -30 -19 -32 -31
-2 -7 20 -7 33 0 45 6 10 11 31 11 48 0 20 5 30 15 30 11 0 12 6 6 23 -5 12
-16 21 -24 19 -22 -4 -47 37 -47 77 0 19 -11 57 -25 85 -61 125 -235 970 -279
1353 -15 126 -12 168 8 160 13 -5 13 4 -4 122 -7 46 -6 69 2 78 8 10 8 17 0
25 -20 20 -14 38 12 38 32 0 53 -26 39 -49 -14 -22 7 -67 23 -51 7 7 20 3 40
-15 19 -16 41 -25 64 -25 l35 0 -43 26 c-28 17 -42 32 -40 42 5 25 37 27 62 3
23 -21 97 -52 125 -50 9 0 -12 13 -46 29 -35 16 -63 34 -63 41 0 6 -11 20 -25
31 -29 23 -32 35 -9 40 10 2 -19 23 -69 51 -83 47 -86 47 -126 35 -24 -8 -41
-19 -41 -28 0 -8 -4 -21 -9 -29 -15 -23 -52 8 -67 55 -11 35 -12 27 -8 -71z
m254 -95 c0 -11 -7 -20 -15 -20 -15 0 -21 21 -8 33 12 13 23 7 23 -13z m-130
-313 c0 -14 -20 -37 -32 -37 -4 0 -8 11 -8 25 0 18 5 25 20 25 11 0 20 -6 20
-13z m-21 -121 c6 -7 13 -43 17 -81 3 -39 15 -87 25 -108 17 -34 59 -233 59
-279 0 -28 -17 -12 -25 22 -4 20 -13 30 -25 30 -29 0 -40 31 -52 138 -6 53
-16 106 -23 117 -14 23 -38 162 -30 175 6 10 41 2 54 -14z m75 -693 c8 -19 -8
-38 -23 -29 -16 10 -13 46 3 46 8 0 17 -8 20 -17z m156 -499 c6 -14 10 -39 10
-56 0 -18 10 -52 21 -76 18 -36 19 -46 8 -53 -8 -4 -18 -4 -23 1 -9 9 -55 173
-56 198 0 22 30 12 40 -14z m49 -391 c49 -177 80 -353 63 -353 -6 0 -13 8 -16
18 -12 41 -76 337 -76 354 0 32 19 19 29 -19z m101 -94 c0 -19 -5 -29 -15 -29
-17 0 -30 42 -21 66 10 25 36 -2 36 -37z m60 -34 c0 -29 -10 -38 -27 -24 -14
12 -18 51 -6 62 11 11 33 -14 33 -38z m-32 -73 c3 -25 -1 -32 -14 -32 -11 0
-15 -6 -11 -19 2 -10 1 -25 -4 -32 -8 -12 -11 -11 -19 1 -13 20 -13 70 0 70 6
0 10 12 10 26 0 40 34 28 38 -14z m52 -23 c0 -5 -4 -9 -10 -9 -5 0 -10 7 -10
16 0 8 5 12 10 9 6 -3 10 -10 10 -16z m-49 -150 c9 -30 10 -42 1 -51 -15 -15
-46 55 -37 83 9 27 22 15 36 -32z m70 -11 c2 -28 -1 -52 -7 -58 -9 -8 -24 25
-24 53 0 33 29 38 31 5z m-102 -102 c15 -60 14 -99 -1 -94 -16 6 -26 41 -27
96 -1 55 14 54 28 -2z m169 -165 c4 -40 -14 -67 -34 -50 -17 14 -17 29 -4 64
13 35 34 27 38 -14z m37 -152 c6 -16 9 -18 22 -8 12 10 16 10 24 -2 13 -20 11
-35 -5 -48 -12 -10 -17 -8 -25 7 -7 14 -18 18 -40 14 -27 -4 -31 -1 -31 20 0
14 3 28 7 31 14 14 42 6 48 -14z m-67 -132 c2 -19 -1 -27 -12 -27 -11 0 -16
10 -16 31 0 38 24 35 28 -4z m102 -51 c0 -28 -3 -30 -42 -40 -21 -5 -28 -3
-28 9 0 8 4 15 9 15 5 0 13 9 16 20 9 30 45 26 45 -4z m-250 -96 c0 -11 -4
-20 -10 -20 -5 0 -10 9 -10 20 0 11 5 20 10 20 6 0 10 -9 10 -20z m381 -73
c14 -31 -4 -80 -29 -75 -33 6 -24 98 9 98 5 0 14 -10 20 -23z m-371 -53 c0
-13 -4 -24 -10 -24 -5 0 -10 14 -10 31 0 17 4 28 10 24 6 -3 10 -17 10 -31z
m190 11 c0 -14 -4 -25 -9 -25 -12 0 -23 29 -15 41 10 18 24 9 24 -16z m-140
-14 c0 -11 9 -21 21 -24 12 -3 19 -12 17 -19 -6 -17 -38 -23 -38 -7 0 6 -7 17
-17 24 -9 7 -14 19 -10 29 9 22 27 20 27 -3z m-70 -102 c0 -17 -4 -28 -10 -24
-5 3 -10 17 -10 31 0 13 5 24 10 24 6 0 10 -14 10 -31z m270 22 c0 -6 -4 -13
-10 -16 -5 -3 -10 1 -10 9 0 9 5 16 10 16 6 0 10 -4 10 -9z m-105 -51 c8 -24
-1 -40 -21 -40 -8 0 -14 10 -14 23 0 40 24 51 35 17z m85 -28 c0 -28 -47 -146
-59 -150 -21 -7 -22 26 -2 67 12 22 21 45 21 50 0 5 4 22 10 36 11 28 30 26
30 -3z m-180 -7 c0 -8 -4 -15 -10 -15 -5 0 -10 7 -10 15 0 8 5 15 10 15 6 0
10 -7 10 -15z m60 -75 c0 -21 -15 -27 -25 -10 -7 12 2 30 16 30 5 0 9 -9 9
-20z m160 -65 c0 -39 -16 -47 -29 -12 -10 27 -4 47 15 47 9 0 14 -12 14 -35z
m-70 -45 c0 -5 -4 -10 -10 -10 -5 0 -10 5 -10 10 0 6 5 10 10 10 6 0 10 -4 10
-10z m94 -35 c7 -20 -3 -45 -19 -45 -7 0 -15 7 -19 15 -7 20 3 45 19 45 7 0
15 -7 19 -15z m-156 -32 c-5 -25 -28 -28 -28 -4 0 12 6 21 16 21 9 0 14 -7 12
-17z m88 3 c7 -18 -14 -58 -27 -51 -10 7 -12 48 -2 58 11 11 23 8 29 -7z m84
-66 c0 -23 -18 -36 -32 -22 -7 7 -6 17 2 31 13 24 30 19 30 -9z m-120 -25 c0
-8 -4 -15 -10 -15 -5 0 -10 7 -10 15 0 8 5 15 10 15 6 0 10 -7 10 -15z m50
-36 c0 -17 -6 -32 -15 -35 -8 -4 -15 -15 -15 -25 0 -10 -7 -19 -15 -19 -17 0
-20 25 -5 35 6 3 10 21 10 40 0 31 15 48 33 38 4 -2 7 -18 7 -34z m85 -25 c0
-19 -6 -30 -17 -32 -14 -3 -18 3 -18 26 0 16 3 32 7 36 14 13 28 -1 28 -30z
m-160 -10 c0 -10 -8 -20 -17 -22 -18 -3 -26 27 -11 42 12 11 28 0 28 -20z
m189 -94 c5 -25 9 -63 10 -85 1 -34 -2 -40 -19 -40 -17 0 -20 8 -23 50 -2 27
-8 55 -14 62 -15 19 -1 65 20 61 11 -2 20 -19 26 -48z m-224 15 c0 -8 -4 -15
-10 -15 -5 0 -10 7 -10 15 0 8 5 15 10 15 6 0 10 -7 10 -15z m49 -36 c-12 -24
-16 -24 -29 2 -9 15 -8 24 1 36 12 13 14 13 26 -2 8 -13 9 -23 2 -36z m86 1
c0 -27 -22 -39 -31 -16 -8 22 3 49 19 43 6 -2 12 -14 12 -27z m-115 -50 c0
-21 -15 -27 -25 -10 -7 12 2 30 16 30 5 0 9 -9 9 -20z m130 -45 c0 -16 -6 -25
-15 -25 -9 0 -15 9 -15 25 0 16 6 25 15 25 9 0 15 -9 15 -25z m114 -52 c8 -20
-16 -68 -34 -68 -19 0 -26 61 -10 80 13 16 36 10 44 -12z m-284 -8 c0 -8 -4
-15 -10 -15 -5 0 -10 7 -10 15 0 8 5 15 10 15 6 0 10 -7 10 -15z m130 5 c0 -5
-2 -10 -4 -10 -3 0 -8 5 -11 10 -3 6 -1 10 4 10 6 0 11 -4 11 -10z m58 -35 c2
-15 13 -36 25 -46 l22 -18 -29 -55 c-27 -53 -47 -68 -61 -46 -4 6 5 35 19 65
19 43 22 55 11 55 -17 0 -30 42 -21 66 9 24 31 11 34 -21z m104 -100 c8 -33
-3 -51 -26 -42 -23 9 -22 80 1 75 9 -2 20 -16 25 -33z m-232 -15 c0 -11 -7
-20 -15 -20 -8 0 -15 9 -15 20 0 11 7 20 15 20 8 0 15 -9 15 -20z m194 -47 c7
-18 16 -28 25 -25 16 5 31 -15 31 -44 0 -25 -26 -82 -49 -106 -31 -33 -41 -47
-41 -58 0 -16 -27 -12 -34 6 -4 9 0 24 9 34 8 9 15 24 15 33 0 9 5 17 10 17 6
0 10 11 10 24 0 19 -4 23 -19 19 -22 -6 -36 25 -26 57 9 29 24 25 36 -9 8 -22
15 -28 30 -24 26 7 24 22 -6 33 -25 9 -42 50 -30 70 11 18 28 6 39 -27z m-180
-32 c9 -14 -4 -41 -20 -41 -8 0 -14 8 -14 18 0 29 22 43 34 23z m-34 -87 c0
-8 -7 -14 -15 -14 -15 0 -21 21 -9 33 10 9 24 -2 24 -19z m115 -54 c0 -13 -6
-25 -12 -27 -9 -3 -13 6 -13 27 0 21 4 30 13 28 6 -3 12 -15 12 -28z m163 -11
c1 -13 -7 -40 -19 -59 -20 -32 -22 -33 -35 -15 -20 27 -17 53 6 65 11 6 20 18
20 26 0 25 25 10 28 -17z m60 -23 c4 -17 -14 -46 -29 -46 -14 0 -21 41 -8 56
15 18 33 13 37 -10z m-198 -82 c0 -12 -5 -26 -10 -29 -13 -8 -31 40 -24 60 9
22 34 -1 34 -31z m140 2 c0 -28 -20 -66 -34 -66 -22 0 -28 30 -11 56 17 26 45
32 45 10z m-94 -42 c-5 -13 -10 -14 -18 -6 -6 6 -8 18 -4 28 5 13 10 14 18 6
6 -6 8 -18 4 -28z m-442 -59 c-10 -54 -28 -64 -32 -19 -4 42 15 91 30 76 8 -8
9 -25 2 -57z m986 11 c0 -14 -5 -28 -10 -31 -13 -8 -24 20 -16 40 9 24 26 17
26 -9z m-530 -33 c0 -19 -28 -53 -44 -53 -6 0 -5 5 2 12 7 7 12 22 12 35 0 14
6 23 15 23 8 0 15 -8 15 -17z m540 -67 c0 -22 -11 -46 -21 -46 -5 0 -9 14 -9
30 0 20 5 30 15 30 8 0 15 -6 15 -14z m-720 -82 c0 -8 -4 -12 -10 -9 -5 3 -10
10 -10 16 0 5 5 9 10 9 6 0 10 -7 10 -16z m-60 -4 c0 -5 -4 -10 -10 -10 -5 0
-10 5 -10 10 0 6 5 10 10 10 6 0 10 -4 10 -10z m844 -70 c3 -44 12 -91 18
-105 8 -17 8 -39 1 -75 -6 -27 -6 -50 -2 -50 5 0 16 -17 24 -37 16 -37 13 -97
-4 -107 -16 -10 -51 7 -51 25 0 11 -7 19 -15 19 -9 0 -18 7 -21 15 -4 9 -14
14 -23 13 -12 -2 -17 6 -19 30 -4 41 14 68 34 51 11 -9 14 -4 14 27 0 35 -1
36 -14 18 -22 -28 -38 -6 -34 47 2 36 7 44 23 44 29 0 34 12 28 70 -5 49 7 95
26 95 4 0 11 -36 15 -80z m-61 28 c2 -7 0 -21 -5 -32 -12 -23 -28 -4 -21 25 6
22 19 25 26 7z m-769 -24 c8 -20 -1 -34 -20 -34 -8 0 -14 8 -14 18 0 33 23 44
34 16z m-64 -13 c0 -12 -20 -25 -27 -18 -7 7 6 27 18 27 5 0 9 -4 9 -9z m177
-47 c7 -20 -21 -49 -41 -41 -24 9 -1 56 27 57 4 0 10 -7 14 -16z m-281 -109
c-7 -18 -26 -20 -26 -2 0 18 24 41 28 27 2 -6 1 -17 -2 -25z m726 -150 c0 -5
-5 -11 -11 -13 -6 -2 -11 4 -11 13 0 9 5 15 11 13 6 -2 11 -8 11 -13z m128 -5
c0 -5 -7 -10 -15 -10 -8 0 -15 5 -15 10 0 6 7 10 15 10 8 0 15 -4 15 -10z m-3
-36 c5 -15 -28 -27 -40 -15 -5 5 -6 14 -2 21 8 13 37 9 42 -6z m108 -23 c7
-12 -26 -31 -54 -31 -25 0 -28 27 -3 33 30 8 51 7 57 -2z m-1092 -66 c24 -17
15 -70 -14 -86 -30 -16 -42 -1 -35 44 10 61 17 67 49 42z m1143 4 c11 -19 -19
-29 -79 -27 -65 3 -77 20 -20 29 63 10 91 10 99 -2z"/>
<path d="M2570 7221 c0 -10 7 -21 15 -25 8 -3 15 -1 15 3 0 5 3 16 6 25 4 12
0 16 -15 16 -14 0 -21 -6 -21 -19z"/>
<path d="M2729 7163 c-13 -16 -12 -17 4 -4 9 7 17 15 17 17 0 8 -8 3 -21 -13z"/>
<path d="M3388 7140 c-58 -11 -129 -25 -156 -32 -45 -12 -49 -15 -38 -30 12
-17 16 -17 67 1 30 11 109 28 176 39 67 11 129 25 140 31 29 17 -65 12 -189
-9z"/>
<path d="M2650 7140 c0 -5 6 -13 14 -17 7 -4 15 -13 17 -20 2 -6 12 0 23 14
18 25 18 25 -2 19 -11 -4 -23 -2 -27 4 -8 13 -25 13 -25 0z"/>
<path d="M3515 7100 c-13 -6 -15 -9 -5 -9 8 0 22 4 30 9 18 12 2 12 -25 0z"/>
<path d="M2176 6940 c6 -6 28 -13 50 -15 l39 -5 -35 14 c-43 18 -68 20 -54 6z"/>
<path d="M3310 6910 c-11 -7 -8 -9 15 -9 17 1 44 5 60 9 27 7 26 8 -15 9 -25
0 -52 -4 -60 -9z"/>
<path d="M2077 6891 c6 -25 16 -27 33 -6 8 9 8 15 2 15 -6 0 -17 3 -25 6 -12
4 -14 0 -10 -15z"/>
<path d="M2430 6872 c0 -5 16 -13 35 -19 41 -13 49 2 9 17 -31 12 -44 13 -44
2z"/>
<path d="M2948 6815 c-3 -23 0 -35 8 -35 7 0 14 -6 17 -12 3 -9 7 -7 12 5 8
18 -12 77 -25 77 -4 0 -10 -16 -12 -35z"/>
<path d="M2607 6833 c-4 -3 -2 -14 3 -23 16 -30 -12 -44 -74 -36 l-54 6 7 -27
c8 -32 31 -43 31 -15 0 16 7 19 44 19 37 0 46 -4 50 -21 11 -40 6 -87 -9 -92
-12 -5 -14 -46 -14 -262 1 -211 -2 -258 -14 -267 -11 -8 -15 -45 -19 -155 -6
-147 -17 -200 -41 -200 -10 0 -16 -24 -21 -92 -3 -50 -4 -93 -1 -96 2 -3 10 8
16 24 11 29 11 29 22 6 7 -16 7 -29 -1 -48 -7 -14 -12 -37 -11 -52 1 -27 1
-27 15 6 8 19 20 32 27 29 46 -19 51 -18 23 5 -28 24 -29 27 -23 94 3 38 19
139 36 224 17 85 44 263 60 395 17 132 35 256 41 275 13 45 13 63 -1 54 -14
-8 -29 14 -29 44 0 30 24 24 28 -6 4 -26 17 -29 26 -5 5 12 -3 24 -24 41 -39
30 -70 91 -70 136 0 34 -11 52 -23 39z"/>
<path d="M1755 6689 c6 -101 -1 -139 -23 -125 -6 4 -14 38 -18 76 -5 49 -11
70 -20 70 -8 0 -14 -9 -14 -20 0 -19 45 -288 75 -454 8 -43 15 -81 15 -83 0
-3 7 0 15 7 10 9 14 23 11 39 -17 81 -36 335 -27 344 7 7 11 57 11 118 0 85
-3 109 -16 120 -14 12 -15 3 -9 -92z"/>
<path d="M2435 6730 c3 -5 10 -10 16 -10 5 0 9 5 9 10 0 6 -7 10 -16 10 -8 0
-12 -4 -9 -10z"/>
<path d="M2336 6721 c-12 -19 26 -60 51 -54 13 3 36 0 53 -5 16 -6 32 -7 35
-2 7 11 -19 20 -58 20 -36 0 -49 7 -64 34 -7 12 -13 15 -17 7z"/>
<path d="M2791 6652 c-17 -16 -31 -38 -31 -48 0 -15 2 -16 9 -5 5 7 13 11 19
7 11 -7 9 -52 -14 -268 -19 -187 -16 -204 12 -68 31 147 42 297 24 340 -11 27
-11 32 6 45 10 7 16 16 12 20 -3 4 -20 -7 -37 -23z"/>
<path d="M3398 6617 c-14 -12 -31 -31 -37 -43 -9 -19 -8 -21 13 -17 16 3 29
17 39 44 8 21 15 39 14 39 -1 0 -14 -10 -29 -23z"/>
<path d="M2366 6596 c9 -15 21 -23 30 -19 13 5 12 8 -2 24 -9 11 -23 19 -31
19 -11 0 -10 -5 3 -24z"/>
<path d="M2464 6479 c-3 -6 -1 -16 5 -22 8 -8 11 -5 11 11 0 24 -5 28 -16 11z"/>
<path d="M3281 6460 c-12 -17 -26 -28 -31 -25 -5 3 -11 -4 -14 -15 -3 -11 -9
-29 -12 -40 -4 -15 -1 -18 9 -14 8 3 18 0 22 -6 9 -15 78 98 71 116 -8 21 -20
17 -45 -16z"/>
<path d="M1833 6351 c3 -54 17 -154 31 -222 13 -68 27 -145 31 -171 6 -49 25
-76 25 -38 0 13 8 24 20 27 28 8 25 23 -5 23 -14 0 -28 6 -30 13 -2 6 -13 95
-25 197 -28 253 -31 270 -43 270 -7 0 -8 -33 -4 -99z"/>
<path d="M2401 6395 c0 -11 4 -27 9 -35 9 -13 10 -13 9 0 0 8 -4 24 -9 35 l-9
20 0 -20z"/>
<path d="M2410 6290 c0 -8 5 -22 10 -30 9 -13 10 -13 10 0 0 8 -5 22 -10 30
-9 13 -10 13 -10 0z"/>
<path d="M3252 6275 c0 -16 2 -22 5 -12 2 9 2 23 0 30 -3 6 -5 -1 -5 -18z"/>
<path d="M2483 6240 c0 -25 2 -35 4 -22 2 12 2 32 0 45 -2 12 -4 2 -4 -23z"/>
<path d="M3241 6224 c0 -11 3 -14 6 -6 3 7 2 16 -1 19 -3 4 -6 -2 -5 -13z"/>
<path d="M1816 5951 c-3 -5 -1 -22 4 -37 5 -16 30 -117 55 -224 25 -107 56
-229 69 -270 21 -66 24 -71 25 -39 1 20 -6 53 -14 72 -8 20 -15 53 -15 74 0
21 -7 63 -15 93 -19 70 -19 115 0 134 8 8 15 24 15 36 0 11 7 23 15 26 22 9
18 24 -5 24 -16 0 -20 -7 -20 -33 0 -95 -64 -26 -90 96 -12 58 -15 64 -24 48z"/>
<path d="M1966 5664 c3 -19 13 -54 20 -77 l14 -42 -5 55 c-3 30 -5 65 -5 78 0
13 -6 22 -15 22 -13 0 -15 -7 -9 -36z"/>
<path d="M2990 5590 c-11 -7 -11 -11 -1 -24 17 -20 6 -36 -24 -36 -18 0 -23
-4 -19 -15 5 -12 9 -13 20 -4 21 18 29 3 27 -52 0 -27 3 -49 8 -49 5 0 9 -14
9 -32 0 -23 -10 -40 -39 -68 -42 -40 -173 -100 -218 -100 -60 0 -83 -6 -97
-25 -12 -17 -12 -21 3 -31 15 -12 15 -15 -1 -42 -35 -58 -17 -147 56 -285 20
-38 36 -78 36 -90 0 -12 7 -65 16 -118 17 -98 14 -149 -10 -149 -25 0 -37
-194 -12 -203 22 -9 30 -59 12 -73 -13 -9 -16 -36 -16 -152 0 -83 4 -142 10
-144 15 -5 30 -99 19 -120 -6 -10 -5 -19 1 -23 15 -9 13 -138 -2 -154 -25 -24
1 -734 28 -760 3 -3 11 2 18 12 7 9 19 17 26 17 10 0 11 15 6 61 -3 34 -6 80
-6 102 0 29 -4 38 -14 34 -7 -3 -19 0 -25 6 -16 16 -14 75 4 85 14 7 14 23 6
123 -6 63 -11 218 -11 344 0 127 -3 361 -6 520 -5 297 -1 375 18 342 5 -10 13
-66 17 -125 l8 -107 2 113 c1 86 4 113 14 110 7 -3 15 -33 19 -79 8 -91 25
-199 32 -207 9 -8 7 51 -4 174 -16 171 -20 194 -34 194 -8 0 -16 14 -20 31 -9
47 -7 269 3 269 4 0 8 62 8 139 0 137 7 177 24 150 5 -8 9 -35 9 -60 0 -55 22
-83 39 -51 8 15 7 21 -4 26 -21 8 -22 136 -1 136 8 0 17 8 20 18 8 24 66 83
76 77 5 -3 14 11 20 30 6 19 18 35 25 35 13 0 23 50 27 137 2 49 -4 58 -40 58
-17 0 -30 8 -37 22 -8 15 -15 19 -25 13z m75 -81 c8 -25 1 -34 -20 -26 -19 8
-20 47 -1 47 8 0 18 -9 21 -21z m-148 -284 c-30 -27 -67 -33 -67 -12 0 17 36
36 70 36 l25 0 -28 -24z m-194 -49 c3 -12 -30 -32 -39 -24 -11 12 5 40 21 36
9 -2 17 -7 18 -12z m86 -279 c0 -207 -6 -275 -22 -250 -29 47 -36 433 -8 466
7 9 17 14 22 11 5 -3 9 -105 8 -227z m-86 90 c-7 -108 -27 -114 -31 -9 -3 70
11 123 28 106 5 -5 6 -49 3 -97z"/>
<path d="M2752 5553 c-44 -3 -62 -8 -59 -16 3 -7 11 -10 18 -8 8 2 44 4 81 3
53 0 66 3 61 14 -3 8 -13 13 -22 12 -9 -1 -44 -3 -79 -5z"/>
<path d="M2001 5503 c-1 -26 8 -59 24 -90 l24 -48 -6 40 c-3 22 -10 45 -14 51
-5 6 -13 28 -18 50 l-9 39 -1 -42z"/>
<path d="M2507 5406 c-4 -10 -5 -21 -2 -24 9 -9 17 6 13 25 -3 17 -4 17 -11
-1z"/>
<path d="M2530 5326 c0 -45 16 -55 24 -15 9 45 8 49 -9 49 -10 0 -15 -10 -15
-34z"/>
<path d="M2061 5283 c-1 -6 4 -34 11 -62 12 -52 28 -69 28 -28 -1 23 -38 110
-39 90z"/>
<path d="M2582 5200 c0 -14 2 -19 5 -12 2 6 2 18 0 25 -3 6 -5 1 -5 -13z"/>
<path d="M2111 5058 c0 -28 2 -30 9 -13 12 28 12 45 0 45 -5 0 -10 -15 -9 -32z"/>
<path d="M2501 5052 c-9 -16 -7 -21 9 -25 21 -5 26 8 11 32 -7 11 -11 10 -20
-7z"/>
<path d="M2907 4953 c-7 -11 17 -188 30 -220 5 -15 12 -19 21 -14 10 6 9 23
-8 82 -11 40 -20 87 -20 104 0 33 -14 62 -23 48z"/>
<path d="M3110 4915 c0 -8 9 -15 20 -15 11 0 20 7 20 15 0 8 -9 15 -20 15 -11
0 -20 -7 -20 -15z"/>
<path d="M2640 4848 c0 -9 5 -20 10 -23 13 -8 13 5 0 25 -8 13 -10 13 -10 -2z"/>
<path d="M2652 4775 c-7 -14 -12 -42 -12 -62 0 -22 -6 -41 -17 -48 -13 -10
-17 -32 -20 -106 -1 -52 -5 -112 -8 -134 -3 -24 1 -52 9 -70 14 -29 14 -28 15
38 1 77 13 107 41 107 18 0 20 7 19 53 l-1 52 -12 -35 c-24 -74 -46 -76 -46
-4 0 51 14 84 35 84 11 0 15 11 15 38 0 21 5 43 11 49 12 12 4 63 -10 63 -4 0
-13 -11 -19 -25z"/>
<path d="M2345 4729 c-4 -6 -5 -12 -2 -15 2 -3 7 2 10 11 7 17 1 20 -8 4z"/>
<path d="M2883 4680 c0 -25 2 -35 4 -22 2 12 2 32 0 45 -2 12 -4 2 -4 -23z"/>
<path d="M3399 4703 c-41 -49 -45 -57 -27 -51 10 4 19 1 23 -9 4 -13 8 -14 18
-4 9 9 9 14 -1 20 -10 6 -10 14 -3 34 12 31 10 34 -10 10z"/>
<path d="M2490 4663 c-17 -26 -30 -58 -29 -72 0 -20 4 -16 14 18 7 24 23 52
34 62 20 18 28 39 16 39 -3 0 -19 -21 -35 -47z"/>
<path d="M2272 4585 c3 -36 1 -40 -19 -39 -27 1 -28 -4 -8 -30 20 -26 42 -7
51 43 3 20 8 44 10 53 4 12 -1 16 -16 15 -18 -1 -20 -7 -18 -42z"/>
<path d="M2364 4575 c-11 -27 2 -37 14 -11 7 16 8 26 1 26 -5 0 -12 -7 -15
-15z"/>
<path d="M2960 4550 c0 -11 9 -29 20 -40 10 -10 23 -34 29 -52 7 -26 9 -28 10
-10 1 21 -44 122 -54 122 -3 0 -5 -9 -5 -20z"/>
<path d="M2538 4514 c-5 -4 -8 -25 -8 -48 0 -28 3 -37 11 -29 6 6 9 27 7 48
-2 20 -6 33 -10 29z"/>
<path d="M2460 4451 c-7 -15 -7 -21 0 -21 12 0 25 28 17 36 -3 3 -10 -4 -17
-15z"/>
<path d="M2676 4377 c-5 -33 -4 -118 2 -200 10 -150 10 -235 -1 -594 -4 -123
-3 -224 2 -227 13 -9 21 101 21 299 0 150 3 185 15 195 16 13 21 50 6 50 -9 0
-22 295 -14 317 3 7 9 10 14 7 17 -10 9 19 -8 32 -14 9 -19 32 -23 96 l-6 83
-8 -58z"/>
<path d="M2390 4359 c0 -11 -5 -29 -10 -39 -8 -15 -6 -24 10 -40 11 -11 20
-28 20 -37 1 -16 2 -16 12 1 8 15 7 21 -6 28 -18 10 -21 59 -6 89 8 15 7 19
-5 19 -8 0 -15 -9 -15 -21z"/>
<path d="M2552 4360 c0 -14 2 -19 5 -12 2 6 2 18 0 25 -3 6 -5 1 -5 -13z"/>
<path d="M2538 4318 c-4 -10 -14 -18 -23 -18 -10 0 -15 -10 -15 -30 l0 -29 26
25 c15 16 24 35 22 48 -3 18 -4 19 -10 4z"/>
<path d="M2602 4300 c-7 -11 -19 -20 -27 -20 -8 0 -15 -6 -15 -13 0 -9 10 -12
30 -9 25 4 30 9 30 33 0 34 -1 35 -18 9z"/>
<path d="M2486 4213 c-4 -10 -1 -20 9 -25 8 -5 15 -17 15 -28 0 -16 3 -17 25
-7 17 8 25 20 25 37 0 19 -3 21 -12 12 -16 -16 -38 -15 -38 2 0 22 -17 28 -24
9z"/>
<path d="M2396 4204 c-4 -10 -1 -21 6 -25 16 -11 22 5 10 27 -8 15 -10 15 -16
-2z"/>
<path d="M2843 4160 c0 -30 2 -43 4 -27 2 15 2 39 0 55 -2 15 -4 2 -4 -28z"/>
<path d="M2296 4165 c-3 -8 -1 -15 4 -15 6 0 10 7 10 15 0 8 -2 15 -4 15 -2 0
-6 -7 -10 -15z"/>
<path d="M2350 4160 c0 -11 -7 -23 -15 -26 -10 -4 -15 -19 -15 -43 l0 -36 17
35 c9 19 23 47 30 63 12 23 12 27 -2 27 -8 0 -15 -9 -15 -20z"/>
<path d="M2608 4149 c-1 -19 -2 -87 -2 -151 -1 -130 -7 -145 -51 -128 -36 14
-48 -2 -30 -37 14 -27 10 -59 -10 -67 -21 -8 -38 20 -30 51 4 18 3 24 -3 18
-18 -20 -23 -63 -7 -69 8 -3 15 -15 15 -27 0 -21 1 -21 18 -6 10 10 22 14 25
10 10 -10 8 -52 -3 -73 -7 -13 -6 -21 5 -30 18 -15 20 -63 4 -92 -9 -17 -8
-23 5 -30 19 -11 21 -69 5 -118 -9 -25 -9 -34 1 -40 13 -8 10 -83 -5 -127 -6
-18 -3 -23 9 -23 11 0 16 9 16 31 0 64 43 95 55 39 12 -55 -16 -123 -45 -105
-6 4 -10 -6 -10 -27 l0 -33 13 25 c20 39 42 32 44 -15 6 -95 15 -165 21 -165
12 0 6 320 -7 333 -6 6 -11 27 -11 46 0 32 -1 33 -18 18 -10 -10 -22 -17 -27
-17 -4 0 -5 80 -3 178 4 143 8 183 22 210 15 29 17 62 17 239 0 113 -3 208 -6
211 -3 3 -6 -10 -7 -29z"/>
<path d="M2420 4116 c0 -49 15 -66 16 -18 0 15 2 33 5 41 2 7 -2 16 -8 18 -9
3 -13 -9 -13 -41z"/>
<path d="M2906 4113 c-12 -12 -6 -43 9 -43 8 0 15 9 15 19 0 21 -13 34 -24 24z"/>
<path d="M2540 4060 c-9 -16 -8 -20 5 -20 8 0 15 9 15 20 0 11 -2 20 -5 20 -2
0 -9 -9 -15 -20z"/>
<path d="M2437 4019 c-4 -29 -1 -46 9 -56 8 -8 14 -20 14 -26 0 -8 4 -7 12 1
7 7 20 12 30 12 12 0 18 7 18 22 0 20 -1 20 -18 5 -10 -10 -24 -17 -30 -17
-17 0 -25 45 -13 68 14 27 14 32 -3 32 -8 0 -15 -16 -19 -41z"/>
<path d="M3016 4041 c-5 -7 -17 -9 -28 -5 -14 4 -18 2 -14 -5 4 -6 16 -11 26
-11 10 0 22 -5 25 -10 8 -13 -14 -42 -26 -34 -5 3 -9 -2 -9 -10 0 -14 24 -21
48 -14 10 3 7 60 -5 82 -7 13 -12 15 -17 7z"/>
<path d="M1786 3963 c-3 -27 -8 -88 -11 -138 -3 -49 -8 -117 -12 -150 -5 -52
-4 -58 9 -47 8 6 18 9 21 5 4 -3 7 80 7 185 0 106 -2 192 -4 192 -2 0 -7 -21
-10 -47z"/>
<path d="M3013 3913 c-7 -2 -13 -9 -13 -14 0 -4 7 -6 15 -3 8 4 17 -1 21 -10
7 -18 24 -22 24 -5 0 10 -25 40 -32 38 -2 0 -9 -3 -15 -6z"/>
<path d="M2975 3829 c-3 -4 2 -9 10 -13 8 -3 15 -12 15 -20 0 -11 5 -12 25 -3
38 18 32 42 -11 43 -19 0 -37 -3 -39 -7z"/>
<path d="M3050 3756 c0 -33 -17 -42 -41 -20 -21 19 -26 5 -8 -25 10 -14 16
-16 34 -8 26 13 50 77 29 77 -8 0 -14 -11 -14 -24z"/>
<path d="M2420 3735 c0 -14 -7 -28 -15 -31 -8 -4 -15 -18 -15 -33 0 -37 -22
-66 -44 -58 -13 5 -17 17 -15 49 1 24 -3 54 -11 68 -12 23 -14 23 -20 5 -5
-13 -2 -24 8 -31 11 -8 13 -21 9 -47 -4 -25 -2 -37 9 -41 8 -3 14 -13 14 -22
0 -16 1 -16 19 0 26 24 41 13 41 -30 0 -41 -26 -57 -46 -29 -12 16 -14 16 -19
2 -4 -9 2 -24 13 -35 17 -17 22 -18 26 -6 8 20 32 18 41 -3 6 -17 7 -17 17 0
7 14 6 21 -7 31 -12 9 -15 19 -11 34 8 25 36 30 36 7 0 -20 16 -19 24 1 9 22
8 24 -10 24 -14 0 -16 7 -11 39 4 30 1 41 -10 45 -12 5 -14 16 -9 46 4 25 2
40 -4 40 -5 0 -10 -11 -10 -25z m15 -85 c8 -24 -1 -40 -21 -40 -9 0 -14 11
-14 30 0 35 25 42 35 10z"/>
<path d="M3191 3724 c0 -11 3 -14 6 -6 3 7 2 16 -1 19 -3 4 -6 -2 -5 -13z"/>
<path d="M3060 3675 c0 -8 2 -15 4 -15 2 0 6 7 10 15 3 8 1 15 -4 15 -6 0 -10
-7 -10 -15z"/>
<path d="M3033 3636 c-33 -16 -31 -38 2 -23 14 7 25 18 25 25 0 6 -1 11 -2 11
-2 -1 -13 -6 -25 -13z"/>
<path d="M3640 3626 c0 -7 -3 -28 -6 -45 -5 -24 -3 -31 9 -31 16 0 27 -29 27
-76 0 -19 6 -34 15 -38 12 -4 15 5 15 55 0 52 -3 62 -20 66 -16 4 -20 14 -20
44 0 22 -4 39 -10 39 -5 0 -10 -6 -10 -14z"/>
<path d="M3601 3463 c1 -52 3 -61 9 -38 11 45 11 93 0 100 -6 4 -10 -19 -9
-62z"/>
<path d="M2890 3471 c0 -30 4 -41 13 -39 19 7 20 35 3 60 -16 22 -16 21 -16
-21z"/>
<path d="M3210 3474 c0 -25 3 -35 10 -28 15 15 17 56 3 61 -9 3 -13 -7 -13
-33z"/>
<path d="M5003 3498 c-31 -15 -29 -28 5 -28 34 0 57 14 48 29 -9 13 -24 13
-53 -1z"/>
<path d="M5133 3465 c-28 -19 -86 -53 -129 -77 -80 -44 -119 -84 -50 -51 43
20 60 9 27 -18 -19 -16 -20 -19 -6 -19 12 0 16 -6 12 -19 -4 -17 -2 -18 25 -9
17 6 33 19 35 29 4 14 15 19 39 19 19 0 34 -4 34 -9 0 -13 -62 -48 -145 -83
-38 -16 -76 -32 -84 -35 -32 -14 3 18 42 39 41 22 41 23 15 26 -33 4 -35 10
-10 28 34 26 -15 16 -78 -16 -125 -63 -427 -245 -466 -280 -22 -21 -53 -45
-67 -55 -15 -9 -25 -21 -22 -25 3 -4 -3 -14 -12 -21 -14 -12 -15 -11 -9 9 5
13 3 22 -3 22 -6 0 -11 -4 -11 -9 0 -11 -259 -241 -271 -241 -19 0 -7 28 25
59 19 18 37 43 40 55 5 21 68 80 164 155 34 27 40 36 31 47 -6 8 -18 14 -26
14 -11 0 -13 8 -8 33 l7 32 -23 -21 c-301 -270 -374 -334 -381 -334 -30 0 8
50 114 152 91 86 120 119 112 128 -8 8 -24 1 -60 -28 -56 -45 -117 -105 -156
-154 -33 -41 -53 -30 -38 22 5 18 7 43 4 56 -3 12 0 25 6 29 8 5 6 11 -6 20
-17 12 -17 14 -2 38 16 23 16 25 0 23 -10 0 -18 7 -20 20 -2 16 10 31 45 57
58 43 101 87 84 87 -18 0 -65 -26 -80 -44 -17 -20 -51 -21 -51 -1 0 9 11 21
25 27 14 6 25 16 25 22 0 6 -5 5 -12 -2 -7 -7 -21 -12 -31 -12 -17 0 -18 7
-16 64 2 36 0 68 -4 72 -4 4 -7 -11 -7 -34 0 -23 -5 -51 -12 -61 -9 -15 -8
-49 5 -153 9 -73 19 -175 23 -225 6 -82 5 -93 -10 -93 -21 0 -21 -18 1 -42 13
-14 14 -21 5 -30 -7 -7 -12 -20 -12 -30 0 -26 32 -88 46 -88 15 0 61 -194 109
-464 20 -110 50 -241 68 -293 30 -90 31 -95 15 -123 -15 -27 -15 -28 5 -34 12
-3 18 -8 15 -11 -10 -10 30 -45 51 -45 20 0 38 -17 28 -26 -2 -3 -21 -8 -41
-11 -29 -4 -36 -2 -36 11 0 13 -10 16 -47 16 -38 -1 -44 -3 -30 -11 9 -6 15
-14 12 -18 -5 -9 75 -21 137 -21 26 0 40 6 47 19 19 34 67 32 70 -4 0 -5 28
-11 61 -13 54 -3 64 -7 101 -42 23 -21 38 -43 35 -48 -3 -5 13 -14 34 -21 22
-6 40 -17 41 -24 3 -46 5 -103 7 -174 2 -66 5 -83 17 -83 17 0 18 -21 6 -180
-5 -58 -5 -110 0 -116 11 -14 1 -24 -17 -17 -14 5 -17 -42 -19 -271 0 -48 -1
-50 -35 -59 -18 -5 -45 -6 -58 -4 -14 3 -44 -2 -67 -10 -33 -11 -82 -13 -231
-9 -104 3 -217 6 -250 6 -34 0 -73 4 -87 9 -17 7 -28 7 -32 1 -9 -15 -238 -13
-253 2 -9 9 -15 9 -24 0 -7 -7 -29 -12 -49 -12 -21 0 -41 -5 -44 -11 -8 -12
-38 -7 -138 23 -59 18 -76 19 -124 9 -74 -15 -108 -14 -122 3 -6 7 -34 16 -63
19 -48 6 -73 21 -62 38 5 9 -22 19 -55 19 -17 0 -43 14 -69 36 -23 19 -42 32
-42 27 0 -4 -4 -2 -9 6 -5 8 -25 19 -45 26 -30 11 -36 10 -36 -1 0 -19 -35
-18 -73 3 -18 10 -41 18 -52 18 -15 0 -21 8 -23 31 -3 28 -6 30 -40 29 -20 -1
-47 -7 -59 -13 -12 -7 -33 -12 -47 -12 -13 0 -26 -5 -28 -11 -2 -6 -26 -17
-53 -24 -42 -11 -52 -11 -61 1 -16 20 -48 -17 -39 -45 5 -18 0 -24 -29 -36
-58 -24 -70 -21 -63 20 7 45 2 45 -13 -1 -10 -31 -10 -37 6 -48 22 -16 10 -36
-22 -36 -26 0 -31 -9 -13 -27 18 -18 3 -30 -48 -38 -26 -4 -60 -16 -75 -26
-26 -19 -91 -31 -238 -46 -63 -6 -139 11 -146 33 -14 47 -17 49 -24 18 -4 -17
-10 -36 -14 -43 -4 -7 2 -20 16 -31 20 -17 39 -19 165 -20 115 0 149 3 179 17
34 17 37 17 49 0 9 -13 27 -17 79 -17 66 0 67 0 72 29 6 26 14 33 68 51 80 27
191 39 184 19 -6 -17 -69 -37 -120 -38 -22 -1 -38 -6 -38 -13 0 -12 238 -7
485 12 161 12 395 13 395 2 0 -12 152 -15 420 -10 94 2 142 -1 157 -9 26 -15
267 -18 244 -4 -10 7 -1 11 32 16 59 9 113 -1 121 -21 5 -14 25 -15 159 -9
194 8 318 22 385 42 48 15 69 33 40 33 -30 0 24 33 73 45 30 7 44 13 32 14
-13 1 -23 5 -23 10 0 12 63 36 187 71 101 29 131 31 117 8 -4 -7 2 -8 17 -3
61 19 67 24 62 44 -3 12 -11 17 -19 14 -20 -7 -17 11 4 30 22 20 32 21 32 4 0
-9 10 -12 30 -9 17 2 30 10 30 17 0 7 7 18 15 25 20 16 19 30 -1 30 -32 0 -5
24 134 118 626 427 668 457 637 460 -17 2 -33 -2 -40 -11 -5 -8 -134 -97 -285
-199 -151 -101 -303 -205 -338 -231 -64 -47 -99 -64 -110 -53 -12 13 77 90
198 171 69 47 138 100 153 120 l28 35 -28 -17 c-183 -116 -350 -243 -416 -317
-55 -62 -97 -90 -105 -68 -1 5 -12 7 -24 4 -18 -4 -19 -3 -9 17 16 29 55 53
75 45 12 -5 20 3 31 29 16 39 72 84 278 222 76 52 115 85 112 93 -3 8 4 27 16
43 12 17 18 37 15 46 -4 9 1 24 10 34 16 18 16 19 -4 19 -11 0 -23 4 -26 9 -6
9 28 43 62 60 14 7 20 17 15 24 -4 7 -6 20 -4 30 2 16 -1 17 -18 8 -30 -16
-52 -13 -58 8 -3 11 -11 17 -18 15 -31 -12 -22 17 16 49 23 20 38 40 34 47 -5
8 -11 8 -21 -1 -8 -6 -17 -9 -21 -5 -9 8 75 94 100 102 14 4 16 9 7 19 -7 8
-9 19 -6 24 4 6 85 60 181 122 96 61 175 116 175 121 0 7 -73 -29 -105 -53 -5
-4 -39 -23 -73 -43 -91 -51 -124 -48 -60 6 23 19 28 28 17 28 -9 0 -19 10 -22
22 -5 17 4 33 39 67 24 25 40 47 34 49 -6 2 -40 -12 -75 -32 -67 -37 -95 -44
-95 -26 0 12 117 90 134 90 22 0 37 17 30 33 -3 9 -17 17 -30 17 -31 0 -31 24
1 38 24 11 35 42 16 42 -23 0 -41 -14 -41 -30 0 -10 -16 -28 -37 -41 -33 -21
-38 -21 -47 -6 -9 15 -13 14 -46 -6 -19 -11 -37 -25 -39 -30 -7 -18 -46 -47
-63 -47 -22 0 -23 15 -2 32 9 7 34 32 56 55 23 24 56 48 74 55 27 9 32 16 28
33 -4 16 5 27 42 50 l48 30 -31 3 c-22 2 -50 -8 -97 -37 -64 -39 -96 -50 -96
-33 0 22 59 58 200 122 84 38 174 86 198 105 25 19 49 35 54 35 4 0 8 9 8 20
0 25 -7 25 -28 0 -25 -29 -178 -114 -258 -143 -38 -13 -93 -34 -121 -46 -42
-16 -53 -18 -53 -7 0 14 88 76 107 76 6 0 16 6 22 14 9 11 9 15 -1 19 -10 4
-10 8 2 20 24 24 59 31 66 13 9 -22 24 -10 24 19 0 20 11 30 53 51 56 29 51
43 -9 24 -50 -17 -53 -6 -8 37 l38 38 -37 3 c-44 4 -46 13 -9 41 l27 21 -49
-20 c-62 -26 -94 -23 -51 5 17 10 44 32 62 48 30 28 31 31 15 43 -15 11 -15
16 -4 35 9 14 10 24 4 28 -6 4 -7 23 -2 51 6 34 5 47 -6 55 -18 13 -31 110
-15 119 21 13 11 26 -14 20 -25 -6 -35 8 -15 21 6 3 10 19 10 34 0 15 5 32 11
38 16 16 -6 26 -30 13 -41 -21 -44 -8 -7 26 35 30 38 36 25 48 -8 8 -34 17
-59 21 -38 6 -54 2 -104 -24 -67 -36 -66 -36 -66 -16 0 8 18 27 40 41 44 30
48 42 6 23 -29 -14 -46 -5 -28 13 26 26 10 28 -32 3 -24 -14 -50 -23 -58 -20
-9 4 -18 -1 -21 -9 -4 -9 -18 -16 -34 -16 -15 0 -38 -11 -54 -26 -15 -14 -40
-27 -56 -29 -15 -2 -46 -6 -67 -11 -53 -10 -41 8 27 42 29 15 82 44 120 66 59
34 65 41 53 54 -19 19 -28 18 -60 -7 -17 -13 -33 -18 -47 -14 -19 6 -20 8 -3
26 9 10 27 19 38 19 12 0 39 16 61 34 42 36 43 35 -12 52 -7 2 -13 15 -13 29
0 35 -24 32 -87 -10z m-33 -95 c0 -5 -7 -10 -16 -10 -8 0 -12 5 -9 10 3 6 10
10 16 10 5 0 9 -4 9 -10z m460 -154 c0 -15 -105 -86 -127 -86 -27 0 -11 20 48
59 66 44 79 49 79 27z m-1330 -235 c0 -14 -102 -101 -118 -101 -20 0 0 31 48
73 38 35 70 48 70 28z m247 -27 c2 -6 -21 -30 -52 -53 -30 -23 -55 -46 -55
-51 0 -6 -7 -10 -16 -10 -9 0 -30 -11 -46 -25 -17 -14 -33 -23 -37 -19 -9 9
172 174 188 171 8 -1 16 -7 18 -13z m123 1 c0 -21 -59 -50 -74 -35 -8 8 -5 16
14 30 30 23 60 26 60 5z m-110 -69 c0 -16 -67 -59 -83 -53 -5 1 10 17 33 35
50 37 50 37 50 18z m100 -6 c0 -5 -4 -10 -10 -10 -5 0 -10 5 -10 10 0 6 5 10
10 10 6 0 10 -4 10 -10z m-103 -86 c-31 -26 -49 -31 -41 -11 6 15 57 48 64 40
3 -2 -8 -16 -23 -29z m-467 3 c0 -8 -9 -22 -20 -32 -19 -17 -20 -17 -26 0 -5
12 -1 23 11 31 24 18 35 18 35 1z m1541 -109 c-13 -10 -27 -18 -32 -18 -16 0
-9 19 13 34 30 21 47 7 19 -16z m-1621 -5 c0 -13 -81 -76 -88 -68 -4 3 11 22
33 40 40 34 55 42 55 28z m222 -125 c-6 -6 -15 -8 -19 -4 -4 4 -1 11 7 16 19
12 27 3 12 -12z m1392 -47 c8 -12 -21 -34 -34 -26 -8 5 -8 11 1 21 13 16 25
18 33 5z m-353 -544 c-16 -16 -26 0 -10 19 9 11 15 12 17 4 2 -6 -1 -17 -7
-23z m129 -12 c-7 -8 -21 -15 -32 -15 -17 0 -18 3 -8 15 7 8 21 15 32 15 17 0
18 -3 8 -15z m12 -287 c-6 -6 -15 -8 -19 -4 -4 4 -1 11 7 16 19 12 27 3 12
-12z m-22 -173 c0 -18 -46 -42 -58 -31 -7 8 33 46 49 46 5 0 9 -7 9 -15z m-26
-110 c-7 -18 -73 -60 -81 -51 -10 10 49 66 69 66 11 0 15 -5 12 -15z m56 -119
c0 -17 -56 -66 -74 -66 -36 0 -22 41 22 64 34 19 52 20 52 2z m-160 -110 c0
-15 -97 -82 -106 -73 -9 9 5 26 48 58 46 32 58 36 58 15z m90 -36 c0 -12 -7
-20 -16 -20 -17 0 -149 -84 -159 -101 -8 -12 -35 -12 -35 1 0 15 172 140 193
140 10 0 17 -8 17 -20z m-270 -10 c0 -5 -4 -10 -10 -10 -5 0 -10 5 -10 10 0 6
5 10 10 10 6 0 10 -4 10 -10z m-40 -30 c0 -12 -28 -25 -36 -17 -9 9 6 27 22
27 8 0 14 -5 14 -10z m80 -109 c0 -5 -12 -16 -26 -26 -34 -22 -56 -4 -23 19
26 18 49 21 49 7z m-450 -237 c0 -8 -4 -12 -10 -9 -5 3 -10 10 -10 16 0 5 5 9
10 9 6 0 10 -7 10 -16z m370 -30 c0 -17 -22 -14 -28 4 -2 7 3 12 12 12 9 0 16
-7 16 -16z m-150 -70 c0 -9 -5 -14 -12 -12 -18 6 -21 28 -4 28 9 0 16 -7 16
-16z m-130 -64 c0 -5 -7 -10 -15 -10 -8 0 -15 5 -15 10 0 6 7 10 15 10 8 0 15
-4 15 -10z"/>
<path d="M3012 3455 c0 -16 2 -22 5 -12 2 9 2 23 0 30 -3 6 -5 -1 -5 -18z"/>
<path d="M2350 3445 c0 -3 7 -17 17 -31 12 -19 18 -22 24 -12 5 8 1 19 -11 30
-19 18 -30 23 -30 13z"/>
<path d="M2446 3407 c-14 -10 -16 -18 -10 -30 8 -14 11 -12 21 13 13 34 13 34
-11 17z"/>
<path d="M2362 3356 c-10 -22 -9 -26 4 -26 8 0 17 -6 20 -14 4 -11 11 -12 34
-3 17 7 26 16 23 24 -4 10 -9 11 -16 4 -17 -17 -25 -13 -40 15 l-13 25 -12
-25z"/>
<path d="M3070 3365 c0 -8 2 -15 4 -15 2 0 6 7 10 15 3 8 1 15 -4 15 -6 0 -10
-7 -10 -15z"/>
<path d="M3216 3371 c-4 -7 -5 -15 -2 -18 9 -9 19 4 14 18 -4 11 -6 11 -12 0z"/>
<path d="M2690 3296 c0 -31 6 -34 13 -6 3 11 1 23 -4 26 -5 3 -9 -6 -9 -20z"/>
<path d="M2913 3312 c-14 -9 -16 -169 -5 -337 5 -66 9 -107 10 -91 2 23 6 27
22 23 16 -4 19 -1 14 17 -3 12 0 34 5 49 9 22 8 27 -4 27 -12 0 -14 13 -11 70
3 41 1 72 -5 76 -6 3 -8 22 -4 44 4 24 2 41 -5 45 -7 5 -9 21 -5 46 7 41 7 43
-12 31z"/>
<path d="M3155 3300 c-3 -5 1 -10 9 -10 9 0 16 5 16 10 0 6 -4 10 -9 10 -6 0
-13 -4 -16 -10z"/>
<path d="M4723 3258 c-51 -29 -90 -54 -88 -56 5 -5 133 64 166 89 40 31 19 22
-78 -33z"/>
<path d="M3671 3268 c-1 -21 4 -38 9 -38 11 0 11 14 0 50 -7 22 -8 21 -9 -12z"/>
<path d="M2452 3265 c-14 -29 -30 -32 -48 -7 -12 16 -13 16 -20 -2 -5 -13 -3
-21 5 -24 7 -2 17 -15 22 -29 7 -18 14 -23 29 -18 16 5 23 0 34 -26 13 -30 14
-31 24 -13 9 16 7 23 -10 33 -17 11 -20 20 -15 57 5 51 -5 65 -21 29z"/>
<path d="M1744 3269 c-3 -6 -1 -16 5 -22 8 -8 11 -5 11 11 0 24 -5 28 -16 11z"/>
<path d="M3090 3222 c0 -11 -9 -27 -21 -38 -20 -18 -21 -18 -36 1 -14 18 -15
18 -9 2 3 -10 6 -39 6 -65 0 -36 3 -43 12 -34 7 7 20 12 30 12 11 0 18 7 18
18 0 10 5 23 12 30 8 8 8 15 -1 25 -8 10 -9 22 -1 41 6 17 6 26 0 26 -6 0 -10
-8 -10 -18z m-12 -88 c-4 -23 -26 -30 -34 -10 -8 20 15 51 29 37 5 -5 7 -17 5
-27z"/>
<path d="M1753 3150 c0 -41 2 -58 4 -37 2 20 2 54 0 75 -2 20 -4 3 -4 -38z"/>
<path d="M4593 3190 c-13 -5 -23 -12 -23 -15 0 -9 16 -5 36 10 22 16 19 18
-13 5z"/>
<path d="M2406 3141 c-4 -7 -5 -15 -2 -18 9 -9 19 4 14 18 -4 11 -6 11 -12 0z"/>
<path d="M2691 3100 c1 -60 16 -157 18 -114 0 17 4 51 7 75 4 32 1 50 -10 64
-15 19 -15 18 -15 -25z"/>
<path d="M4280 3100 c0 -8 31 -30 43 -30 3 0 7 9 10 20 4 17 0 20 -24 20 -16
0 -29 -4 -29 -10z"/>
<path d="M3094 3083 c18 -33 -27 -63 -55 -37 -17 15 -19 15 -19 1 0 -9 5 -19
10 -22 6 -3 8 -18 5 -33 l-6 -27 16 28 c9 15 24 27 34 27 22 0 36 49 19 65 -8
7 -9 6 -4 -2z"/>
<path d="M4091 3066 c-16 -19 -11 -29 8 -17 7 5 12 14 9 21 -3 9 -8 7 -17 -4z"/>
<path d="M1740 3009 c0 -65 0 -66 25 -61 28 5 35 36 10 46 -8 3 -15 16 -15 28
0 13 -5 30 -10 38 -7 11 -10 -5 -10 -51z"/>
<path d="M3929 3023 c-13 -16 -12 -17 4 -4 16 13 21 21 13 21 -2 0 -10 -8 -17
-17z"/>
<path d="M4376 3024 c-5 -14 -4 -15 9 -4 17 14 19 20 6 20 -5 0 -12 -7 -15
-16z"/>
<path d="M3100 2984 c0 -8 5 -12 10 -9 6 4 8 11 5 16 -9 14 -15 11 -15 -7z"/>
<path d="M3087 2946 c-4 -10 -5 -21 -2 -24 9 -9 17 6 13 25 -3 17 -4 17 -11
-1z"/>
<path d="M2660 2894 c0 -9 5 -14 12 -12 18 6 21 28 4 28 -9 0 -16 -7 -16 -16z"/>
<path d="M3476 2804 c-21 -90 -23 -110 -12 -125 12 -17 16 -7 39 88 21 90 23
111 12 126 -11 16 -16 5 -39 -89z"/>
<path d="M3662 2880 c0 -14 2 -19 5 -12 2 6 2 18 0 25 -3 6 -5 1 -5 -13z"/>
<path d="M3100 2866 c0 -15 3 -16 15 -6 8 6 19 9 25 5 5 -3 10 0 10 8 0 10 -9
14 -25 13 -17 -1 -25 -7 -25 -20z"/>
<path d="M3425 2878 c-31 -17 -75 -70 -75 -89 0 -32 16 -29 34 7 10 23 22 34
31 31 9 -4 17 5 24 25 13 37 12 40 -14 26z"/>
<path d="M3025 2870 c-3 -5 -1 -10 4 -10 6 0 11 5 11 10 0 6 -2 10 -4 10 -3 0
-8 -4 -11 -10z"/>
<path d="M2486 2832 c1 -20 4 -45 9 -55 4 -10 5 -33 2 -52 -4 -26 -2 -35 9
-35 9 0 14 10 14 28 0 15 7 38 16 50 14 20 14 22 -4 22 -24 0 -34 23 -26 56 4
17 2 24 -7 24 -10 0 -14 -12 -13 -38z"/>
<path d="M1722 2847 c-9 -11 -10 -17 -2 -22 15 -9 23 -1 18 21 -3 15 -4 16
-16 1z"/>
<path d="M3652 2830 c0 -14 2 -19 5 -12 2 6 2 18 0 25 -3 6 -5 1 -5 -13z"/>
<path d="M2691 2699 c-1 -64 -4 -150 -7 -192 -6 -67 -5 -77 10 -77 10 0 17 -9
18 -27 0 -16 4 1 8 37 4 36 3 92 -2 125 -4 33 -8 92 -9 130 -2 125 -17 129
-18 4z"/>
<path d="M3265 2773 c-4 -15 -13 -48 -20 -73 -8 -25 -16 -61 -20 -80 -4 -19
-9 -44 -11 -55 -11 -44 45 35 67 95 14 39 27 59 35 56 7 -3 15 3 19 12 3 9 1
18 -6 21 -7 2 -23 15 -35 28 l-23 25 -6 -29z"/>
<path d="M3412 2757 c-7 -19 -21 -37 -32 -40 -25 -6 -26 -39 -1 -54 17 -10 20
-6 36 47 19 64 17 102 -3 47z"/>
<path d="M3020 2755 c-10 -12 -10 -15 3 -15 19 0 31 16 18 24 -5 3 -14 -1 -21
-9z"/>
<path d="M3044 2685 c-9 -28 -8 -35 2 -35 8 0 14 6 14 13 0 6 3 22 6 35 10 36
-10 25 -22 -13z"/>
<path d="M1714 2689 c-3 -6 -1 -16 5 -22 8 -8 11 -5 11 11 0 24 -5 28 -16 11z"/>
<path d="M2533 2683 c-7 -2 -13 -14 -12 -26 0 -12 3 -16 6 -9 2 6 14 12 25 12
11 0 18 5 16 12 -5 14 -18 18 -35 11z"/>
<path d="M5775 2670 c-16 -11 -25 -20 -19 -20 11 0 64 39 54 40 -3 0 -18 -9
-35 -20z"/>
<path d="M3093 2638 c-13 -6 -23 -14 -23 -19 0 -4 11 -2 25 4 14 7 25 15 25
20 0 8 1 9 -27 -5z"/>
<path d="M3465 2638 c-7 -18 -61 -255 -69 -300 -9 -50 8 -56 23 -8 8 28 17 40
30 40 14 0 23 18 40 76 16 54 19 79 11 84 -7 4 -8 22 -4 48 5 31 2 45 -10 57
-13 13 -17 14 -21 3z"/>
<path d="M2570 2611 c0 -24 -5 -34 -20 -38 -14 -4 -20 -14 -20 -35 0 -16 -4
-38 -10 -48 -7 -13 -6 -19 5 -24 11 -4 15 2 15 25 0 16 6 32 14 35 15 6 33
100 22 111 -3 4 -6 -8 -6 -26z"/>
<path d="M1708 2554 c-4 -4 -5 -17 -2 -29 3 -13 1 -26 -5 -29 -5 -4 -8 -13 -4
-22 3 -8 -2 -23 -11 -33 -12 -13 -14 -21 -7 -26 7 -4 8 -12 1 -24 -9 -18 -5
-31 11 -31 10 0 32 129 27 168 -1 19 -6 31 -10 26z"/>
<path d="M2577 2478 c-4 -16 -14 -28 -21 -28 -17 0 -27 -82 -12 -92 7 -5 6
-27 -6 -70 -10 -38 -13 -67 -7 -72 12 -13 11 -63 -1 -87 -7 -13 -7 -19 0 -19
5 0 10 7 10 15 0 24 30 17 31 -7 3 -57 -10 -71 -58 -64 -18 3 -35 0 -38 -5 -4
-5 -1 -9 6 -9 6 0 9 -8 6 -17 -23 -71 -24 -70 26 -29 54 44 77 42 77 -6 1 -28
3 -31 13 -17 7 8 20 18 30 22 10 4 17 17 17 33 0 23 -2 25 -16 13 -23 -19 -34
4 -34 77 0 45 -4 63 -14 67 -18 7 -31 67 -22 103 5 17 12 24 21 20 11 -4 15 2
15 25 0 25 -3 29 -19 24 -28 -8 -35 41 -9 59 15 11 19 23 16 52 -3 37 -3 38
-11 12z"/>
<path d="M2480 2449 c0 -5 5 -7 10 -4 6 3 10 8 10 11 0 2 -4 4 -10 4 -5 0 -10
-5 -10 -11z"/>
<path d="M3055 2420 c-3 -5 -1 -10 4 -10 6 0 11 5 11 10 0 6 -2 10 -4 10 -3 0
-8 -4 -11 -10z"/>
<path d="M3305 2278 c-22 -118 -24 -128 -35 -128 -6 0 -12 12 -16 28 -11 52
-11 52 -42 36 l-29 -14 30 -62 c35 -74 75 -134 118 -177 32 -32 69 -41 69 -17
0 7 7 19 15 26 15 12 28 53 39 120 4 25 0 20 -14 -20 -11 -30 -20 -56 -20 -57
0 -2 -7 -3 -15 -3 -8 0 -15 -8 -15 -19 0 -10 -7 -24 -16 -32 -13 -10 -17 -10
-25 2 -5 8 -9 19 -9 26 0 7 -6 10 -14 7 -30 -11 -28 67 4 235 7 39 7 57 -1 61
-6 5 -8 21 -4 44 4 20 5 36 2 36 -2 0 -12 -42 -22 -92z"/>
<path d="M2655 2329 c-4 -6 -5 -13 -2 -16 7 -7 27 6 27 18 0 12 -17 12 -25 -2z"/>
<path d="M2485 2319 c-4 -6 -5 -12 -2 -15 2 -3 7 2 10 11 7 17 1 20 -8 4z"/>
<path d="M1657 2295 c-15 -10 -17 -21 -12 -44 4 -19 3 -31 -4 -31 -6 0 -8 -7
-5 -15 4 -8 9 -15 13 -15 7 0 35 110 29 115 -2 2 -11 -3 -21 -10z"/>
<path d="M2340 2235 c-7 -9 -19 -14 -26 -11 -13 5 -24 -23 -24 -61 0 -14 6
-23 15 -23 29 0 15 -41 -30 -86 -44 -43 -55 -64 -35 -64 5 0 14 -19 20 -41
l12 -42 19 32 c24 40 24 50 -1 44 -16 -4 -20 0 -20 18 0 27 93 134 108 125 6
-3 13 1 16 10 11 29 6 37 -12 21 -45 -41 -68 -6 -36 54 17 34 14 48 -6 24z"/>
<path d="M2417 2243 c-4 -3 -7 -13 -7 -21 0 -12 3 -12 15 -2 8 7 15 16 15 21
0 11 -14 12 -23 2z"/>
<path d="M5690 2204 l-25 -15 25 7 c14 3 29 10 35 15 15 14 -7 10 -35 -7z"/>
<path d="M1540 2194 c0 -11 5 -14 16 -10 9 3 24 6 35 6 10 0 19 5 19 10 0 6
-16 10 -35 10 -25 0 -35 -4 -35 -16z"/>
<path d="M1413 2188 c2 -7 14 -13 27 -13 13 0 25 6 28 13 2 8 -7 12 -28 12
-21 0 -30 -4 -27 -12z"/>
<path d="M2454 2148 c-12 -28 -26 -44 -39 -46 -12 -2 -26 -15 -32 -32 l-11
-29 35 23 c32 22 94 126 74 126 -4 0 -16 -19 -27 -42z"/>
<path d="M3740 2155 c0 -36 -10 -55 -31 -55 -25 0 -25 -32 1 -48 18 -11 19
-19 14 -68 -5 -35 -3 -58 3 -62 11 -7 17 -53 14 -106 -1 -24 -4 -27 -24 -23
-30 8 -52 -6 -43 -28 5 -14 9 -15 21 -5 16 14 35 5 35 -16 0 -8 12 -19 27 -25
25 -9 25 -11 10 -27 -12 -11 -34 -17 -74 -17 -53 0 -58 2 -71 28 -11 22 -11
31 -1 43 9 11 9 21 1 39 -12 26 -59 61 -69 51 -3 -3 -1 -6 5 -6 14 0 42 -52
42 -80 0 -12 -7 -20 -17 -20 -13 0 -8 -9 20 -36 50 -48 49 -75 -5 -125 -52
-46 -71 -48 -99 -9 -31 41 -53 47 -29 7 23 -36 26 -77 8 -95 -24 -24 38 -13
65 12 29 27 132 46 255 46 85 0 125 8 116 21 -6 11 -144 10 -227 0 -74 -9 -90
0 -54 33 15 14 27 34 27 44 0 12 9 22 22 25 27 7 68 -2 68 -14 0 -5 37 -9 83
-8 78 0 80 1 47 13 -31 11 -35 17 -34 47 0 20 -5 38 -13 42 -9 6 -13 18 -9 32
4 14 1 25 -7 28 -18 7 -46 108 -54 193 -5 52 -3 69 8 78 23 17 13 103 -12 109
-15 4 -19 0 -19 -18z m50 -370 c0 -8 -4 -15 -10 -15 -5 0 -10 7 -10 15 0 8 5
15 10 15 6 0 10 -7 10 -15z"/>
<path d="M1620 2150 c-17 -17 -19 -24 -10 -30 9 -5 10 -17 5 -36 -5 -16 -9
-48 -9 -71 -2 -50 -8 -58 -34 -44 -12 6 -35 11 -52 11 -25 0 -31 4 -26 15 3 8
0 15 -7 14 -38 -1 -267 -47 -241 -48 17 -1 56 4 87 10 112 20 89 -16 -26 -42
-32 -7 -60 -16 -62 -19 -3 -4 19 -11 48 -15 65 -9 79 -9 146 0 44 7 53 6 49
-6 -8 -26 -78 -41 -160 -36 -64 4 -78 2 -78 -9 0 -8 -8 -18 -17 -22 -13 -5 -7
-8 22 -12 27 -3 40 -10 40 -20 0 -11 -17 -17 -65 -22 -104 -11 -250 -35 -257
-42 -4 -3 -2 -11 3 -16 6 -6 25 -4 51 5 67 23 121 29 138 15 8 -7 12 -17 8
-23 -4 -6 -8 -22 -9 -36 -4 -35 -17 -43 -74 -49 -40 -4 -50 -8 -45 -20 8 -22
-14 -42 -47 -42 -16 0 -37 -4 -47 -9 -10 -6 -23 -6 -32 -1 -18 12 -3 40 29 55
23 10 34 39 20 53 -14 14 -58 3 -51 -14 4 -10 -3 -14 -22 -14 -45 0 -112 -38
-111 -63 1 -21 -12 -27 -106 -42 l-37 -6 17 -29 c10 -18 25 -30 37 -30 60 0
336 43 356 55 13 8 79 -5 79 -16 0 -5 -9 -9 -19 -9 -26 0 -51 -10 -51 -21 0
-5 29 -9 64 -9 65 0 86 -9 63 -28 -6 -5 -57 -18 -112 -28 -88 -17 -95 -19 -56
-22 24 -2 49 2 54 7 16 16 57 13 57 -3 0 -8 -8 -17 -17 -20 -15 -6 -15 -8 -3
-16 17 -11 6 -25 -25 -33 -11 -3 9 -5 44 -4 59 2 66 0 77 -21 10 -20 12 -11
18 65 4 48 6 97 5 108 -9 145 6 203 58 223 27 10 148 23 249 26 l51 1 12 108
c6 59 21 159 32 223 11 64 18 119 15 121 -2 3 -14 -5 -26 -17z m-34 -253 c1
-33 -18 -51 -46 -42 -26 8 -26 25 0 32 11 3 20 14 20 25 0 30 25 15 26 -15z"/>
<path d="M5803 2150 c-18 -11 -33 -25 -33 -30 0 -6 16 1 35 16 31 23 41 34 33
34 -2 0 -18 -9 -35 -20z"/>
<path d="M1162 2153 c-18 -4 -21 -9 -16 -29 5 -18 2 -24 -11 -24 -9 0 -19 9
-22 20 -3 11 -10 20 -16 20 -24 0 -417 -67 -467 -80 -19 -5 -62 -12 -95 -16
-45 -5 -54 -9 -35 -13 14 -4 26 -15 28 -24 3 -13 -4 -17 -32 -17 -25 0 -39 -6
-50 -22 -25 -35 -3 -52 57 -44 58 8 89 -8 60 -30 -16 -12 -15 -13 11 -14 21 0
27 -4 22 -16 -3 -9 -6 -26 -6 -39 0 -21 -7 -24 -70 -35 -38 -6 -70 -14 -70
-17 0 -9 158 8 203 22 l42 13 -42 1 c-29 1 -43 5 -43 15 0 22 21 33 74 39 45
4 49 3 65 -24 14 -25 22 -29 58 -29 23 0 77 7 120 15 43 8 101 15 128 15 39 0
53 4 63 20 7 11 21 20 33 20 12 0 18 4 13 11 -4 7 -23 9 -50 5 -24 -3 -63 -9
-87 -12 -32 -5 -46 -2 -56 10 -7 9 -22 16 -32 16 -13 0 -17 7 -16 28 2 26 1
27 -48 24 -27 -2 -58 -6 -67 -8 -19 -6 -25 -34 -8 -34 22 0 8 -18 -17 -23 -16
-3 -47 -11 -70 -17 -49 -14 -93 -7 -93 15 0 11 13 15 51 15 45 0 50 2 44 18
-18 43 -17 51 12 65 21 11 59 15 134 15 114 -1 125 -3 109 -23 -9 -11 -2 -15
35 -21 25 -3 53 -13 61 -21 10 -11 21 -12 42 -5 l27 9 -28 7 c-19 4 -27 12
-24 20 6 16 -50 29 -59 14 -6 -9 -24 -1 -24 10 0 12 161 52 213 52 4 0 7 9 7
20 0 12 9 24 22 29 l23 8 -23 7 c-24 8 -30 31 -9 39 14 6 -39 6 -71 0z m-262
-218 c0 -8 -7 -15 -15 -15 -8 0 -15 7 -15 15 0 8 7 15 15 15 8 0 15 -7 15 -15z"/>
<path d="M1391 2093 c-13 -3 -26 -13 -28 -24 -3 -12 -20 -23 -44 -29 -41 -11
-45 -34 -6 -26 12 3 39 8 60 11 23 4 37 11 37 20 0 18 52 33 58 17 2 -7 17
-12 33 -12 21 0 27 4 23 15 -4 9 -19 15 -35 15 -16 0 -29 5 -29 10 0 10 -25
11 -69 3z"/>
<path d="M5705 2066 c-11 -8 -14 -15 -8 -19 6 -4 16 0 23 8 17 21 8 28 -15 11z"/>
<path d="M5803 2053 c-7 -2 -13 -9 -13 -14 0 -15 36 -10 50 6 10 12 9 15 -6
14 -11 0 -25 -3 -31 -6z"/>
<path d="M1128 1993 c7 -3 16 -2 19 1 4 3 -2 6 -13 5 -11 0 -14 -3 -6 -6z"/>
<path d="M5691 1959 c-27 -20 -39 -35 -33 -41 14 -14 92 33 92 55 0 24 -10 22
-59 -14z"/>
<path d="M2342 1920 c0 -14 2 -19 5 -12 2 6 2 18 0 25 -3 6 -5 1 -5 -13z"/>
<path d="M2055 1869 c-5 -13 -2 -25 6 -30 15 -9 29 7 29 34 0 24 -27 21 -35
-4z"/>
<path d="M1110 1810 c-20 -7 -16 -8 23 -9 26 -1 47 4 47 9 0 12 -34 12 -70 0z"/>
<path d="M5853 1793 c-7 -2 -13 -11 -13 -19 0 -8 -8 -14 -18 -14 -10 0 -48
-18 -85 -40 -60 -37 -98 -45 -82 -19 8 12 -6 11 -25 -2 -11 -8 -12 -12 -2 -16
21 -8 13 -20 -33 -47 -30 -18 -42 -31 -39 -41 5 -11 -2 -15 -26 -15 -22 0 -41
-9 -59 -27 -15 -16 -43 -40 -62 -54 -19 -15 -32 -29 -29 -32 9 -9 530 309 530
324 0 9 -36 11 -57 2z"/>
<path d="M832 1770 c-65 -7 -82 -15 -66 -29 11 -10 164 17 164 30 0 10 -4 10
-98 -1z"/>
<path d="M625 1750 c-38 -6 -39 -7 -14 -14 33 -9 70 -5 70 9 1 13 -8 13 -56 5z"/>
<path d="M805 1713 c-46 -7 -55 -23 -13 -23 19 0 41 7 48 15 7 8 9 14 4 14 -5
-1 -22 -4 -39 -6z"/>
<path d="M650 1675 c0 -16 27 -20 48 -6 11 7 10 10 -3 15 -28 10 -45 7 -45 -9z"/>
<path d="M5487 1650 c-7 -25 11 -25 43 0 l25 20 -31 0 c-23 0 -33 -5 -37 -20z"/>
<path d="M1310 1623 c0 -5 10 -19 21 -33 l20 -25 -16 33 c-15 30 -25 41 -25
25z"/>
<path d="M655 1580 c-4 -6 8 -10 29 -10 20 0 36 5 36 10 0 6 -13 10 -29 10
-17 0 -33 -4 -36 -10z"/>
<path d="M5787 1544 c-31 -19 -57 -38 -57 -41 0 -7 91 46 110 63 24 23 8 16
-53 -22z"/>
<path d="M2592 1548 c6 -18 28 -21 28 -4 0 9 -7 16 -16 16 -9 0 -14 -5 -12
-12z"/>
<path d="M1401 1500 c14 -31 19 -36 19 -24 0 6 -7 19 -16 30 -14 18 -14 18 -3
-6z"/>
<path d="M5865 1510 c-3 -5 1 -10 10 -10 9 0 13 5 10 10 -3 6 -8 10 -10 10 -2
0 -7 -4 -10 -10z"/>
<path d="M5623 1489 c-35 -22 -46 -37 -15 -20 22 13 58 40 52 41 -3 0 -20 -10
-37 -21z"/>
<path d="M3335 1480 c-11 -5 -32 -9 -47 -9 -16 -1 -28 -5 -28 -11 0 -11 46
-12 130 -1 l55 6 -34 13 c-39 14 -48 14 -76 2z"/>
<path d="M1660 1469 c0 -5 5 -7 10 -4 6 3 10 8 10 11 0 2 -4 4 -10 4 -5 0 -10
-5 -10 -11z"/>
<path d="M810 1445 c-52 -12 -113 -27 -135 -33 l-40 -10 40 -1 c22 0 105 10
185 24 80 14 150 25 155 26 6 1 -1 5 -15 9 -42 13 -90 10 -190 -15z"/>
<path d="M5773 1455 c-13 -9 -23 -22 -23 -29 0 -7 -14 -25 -30 -41 -26 -25
-28 -30 -14 -38 14 -8 12 -13 -12 -38 -33 -34 -11 -41 26 -9 13 11 33 20 45
20 31 0 41 28 12 32 -21 3 -21 5 10 34 18 18 28 35 23 40 -4 5 -10 17 -12 27
-3 16 -5 16 -25 2z"/>
<path d="M3956 1451 c-55 -4 -81 -10 -84 -20 -4 -12 17 -13 136 -7 164 7 252
0 252 -21 0 -10 9 -13 28 -11 22 2 26 7 24 28 -2 14 -6 27 -9 30 -7 7 -256 8
-347 1z"/>
<path d="M5554 1444 c-18 -14 -18 -15 4 -4 12 6 22 13 22 15 0 8 -5 6 -26 -11z"/>
<path d="M1656 1432 c-15 -15 -4 -40 21 -46 23 -6 42 4 43 24 0 9 -58 28 -64
22z"/>
<path d="M1492 1398 c-17 -17 -15 -53 3 -68 13 -11 15 -8 15 18 0 17 5 34 10
37 11 7 4 25 -9 25 -4 0 -12 -5 -19 -12z"/>
<path d="M3916 1391 c-27 -3 -51 -12 -54 -18 -5 -17 99 -18 116 -1 16 16 15
28 0 26 -7 0 -35 -4 -62 -7z"/>
<path d="M2115 1381 c-89 -6 -89 -6 -41 -15 56 -10 226 0 241 15 10 10 -41 10
-200 0z"/>
<path d="M1765 1374 c-17 -4 -11 -14 43 -71 34 -36 62 -72 62 -79 0 -8 6 -14
14 -14 8 0 27 -15 42 -32 l27 -33 -6 47 c-4 26 -22 78 -40 115 l-33 68 -45 1
c-24 1 -53 0 -64 -2z"/>
<path d="M832 1350 l-23 -19 26 -17 c14 -9 47 -18 73 -20 26 -2 41 -1 35 2 -7
3 -13 12 -13 20 0 11 -9 13 -40 8 -33 -5 -40 -4 -40 9 0 10 13 20 33 26 l32 9
-30 1 c-16 0 -40 -8 -53 -19z"/>
<path d="M2810 1345 c6 -8 9 -18 6 -23 -3 -6 0 -15 7 -21 11 -8 13 -3 13 24
-1 27 -5 35 -20 35 -15 0 -16 -3 -6 -15z"/>
<path d="M2915 1350 c3 -5 8 -10 11 -10 2 0 4 5 4 10 0 6 -5 10 -11 10 -5 0
-7 -4 -4 -10z"/>
<path d="M2430 1333 c0 -24 -3 -23 93 -27 28 -2 33 9 17 34 -8 13 -10 13 -10
-2 0 -21 -70 -21 -87 1 -11 14 -12 13 -13 -6z"/>
<path d="M2590 1346 c0 -18 22 -56 29 -52 10 7 -9 56 -21 56 -5 0 -8 -2 -8 -4z"/>
<path d="M2660 1328 c0 -16 5 -28 10 -28 13 0 13 20 0 40 -8 12 -10 9 -10 -12z"/>
<path d="M1008 1303 c6 -2 18 -2 25 0 6 3 1 5 -13 5 -14 0 -19 -2 -12 -5z"/>
<path d="M2730 1301 c0 -6 5 -13 10 -16 6 -3 10 1 10 9 0 9 -4 16 -10 16 -5 0
-10 -4 -10 -9z"/>
<path d="M2816 1261 c-4 -7 -5 -15 -2 -18 9 -9 19 4 14 18 -4 11 -6 11 -12 0z"/>
<path d="M5580 1229 c-22 -18 -22 -19 -3 -10 12 6 25 16 28 21 9 15 3 12 -25
-11z"/>
<path d="M4252 1190 c0 -19 2 -27 5 -17 2 9 2 25 0 35 -3 9 -5 1 -5 -18z"/>
<path d="M2206 1179 c-3 -17 -6 -42 -6 -55 0 -37 -26 -54 -81 -54 -36 0 -49
-4 -49 -14 0 -21 115 -133 180 -174 30 -20 69 -48 85 -63 17 -15 42 -31 56
-34 23 -6 20 0 -27 50 -36 38 -60 75 -75 115 -15 41 -25 57 -35 53 -20 -8 -17
15 6 39 26 28 25 40 -2 38 -51 -4 -51 -4 -44 65 7 68 3 87 -8 34z"/>
<path d="M5735 1168 c-29 -16 -195 -139 -195 -145 0 -2 6 -1 13 3 27 17 207
146 207 150 0 6 -2 5 -25 -8z"/>
<path d="M2570 1157 c0 -21 12 -28 27 -16 19 16 16 29 -7 29 -11 0 -20 -6 -20
-13z"/>
<path d="M2955 1160 c-3 -5 -1 -10 4 -10 6 0 11 5 11 10 0 6 -2 10 -4 10 -3 0
-8 -4 -11 -10z"/>
<path d="M3941 1154 c0 -11 3 -14 6 -6 3 7 2 16 -1 19 -3 4 -6 -2 -5 -13z"/>
<path d="M2307 1086 c-4 -10 1 -20 13 -26 12 -6 20 -22 21 -38 l1 -27 10 28
c11 31 32 35 47 10 9 -17 11 -17 27 -1 20 19 11 38 -15 31 -10 -3 -22 0 -25 6
-4 6 -17 11 -30 11 -12 0 -27 5 -33 11 -7 7 -12 6 -16 -5z"/>
<path d="M2788 1043 c7 -3 16 -2 19 1 4 3 -2 6 -13 5 -11 0 -14 -3 -6 -6z"/>
<path d="M4050 1009 c0 -11 5 -17 10 -14 6 3 10 13 10 21 0 8 -4 14 -10 14 -5
0 -10 -9 -10 -21z"/>
<path d="M5364 934 c-18 -14 -18 -15 4 -4 12 6 22 13 22 15 0 8 -5 6 -26 -11z"/>
<path d="M5314 904 c-18 -14 -18 -15 4 -4 12 6 22 13 22 15 0 8 -5 6 -26 -11z"/>
<path d="M5352 865 c-45 -25 -162 -113 -162 -121 0 -2 47 27 105 66 89 60 116
81 103 80 -2 0 -22 -11 -46 -25z"/>
<path d="M1192 785 c0 -16 2 -22 5 -12 2 9 2 23 0 30 -3 6 -5 -1 -5 -18z"/>
<path d="M1480 794 c0 -8 5 -12 10 -9 6 3 10 10 10 16 0 5 -4 9 -10 9 -5 0
-10 -7 -10 -16z"/>
<path d="M2555 690 c20 -23 29 -21 19 4 -3 9 -13 16 -22 16 -13 0 -12 -3 3
-20z"/>
<path d="M5033 630 c-13 -15 -23 -31 -23 -35 0 -9 43 -1 83 14 l27 11 -20 20
c-27 27 -40 25 -67 -10z"/>
<path d="M3170 594 c-10 -11 -9 -14 8 -14 25 0 37 16 18 23 -8 3 -20 -1 -26
-9z"/>
<path d="M3105 580 c-3 -5 1 -10 9 -10 9 0 16 5 16 10 0 6 -4 10 -9 10 -6 0
-13 -4 -16 -10z"/>
<path d="M4790 510 c-8 -5 -10 -10 -5 -10 6 0 17 5 25 10 8 5 11 10 5 10 -5 0
-17 -5 -25 -10z"/>
<path d="M1330 456 c0 -2 8 -10 18 -17 15 -13 16 -12 3 4 -13 16 -21 21 -21
13z"/>
<path d="M4453 343 c9 -2 23 -2 30 0 6 3 -1 5 -18 5 -16 0 -22 -2 -12 -5z"/>
<path d="M2340 310 c0 -5 9 -10 21 -10 11 0 17 5 14 10 -3 6 -13 10 -21 10 -8
0 -14 -4 -14 -10z"/>
<path d="M1807 303 c-10 -9 -8 -43 2 -43 5 0 14 7 21 15 17 21 -4 48 -23 28z"/>
<path d="M1882 279 c2 -7 10 -15 17 -17 8 -3 12 1 9 9 -2 7 -10 15 -17 17 -8
3 -12 -1 -9 -9z"/>
<path d="M4233 3 c9 -2 23 -2 30 0 6 3 -1 5 -18 5 -16 0 -22 -2 -12 -5z"/>
</g>
</svg>
